<?xml version="1.0" encoding="UTF-8" standalone="no"?>
<!DOCTYPE svg PUBLIC "-//W3C//DTD SVG 1.1//EN" "http://www.w3.org/Graphics/SVG/1.1/DTD/svg11.dtd">
<svg width="100%" height="100%" viewBox="0 0 200 200" version="1.1" xmlns="http://www.w3.org/2000/svg" xmlns:xlink="http://www.w3.org/1999/xlink" xml:space="preserve" xmlns:serif="http://www.serif.com/" style="fill-rule:evenodd;clip-rule:evenodd;stroke-miterlimit:10;">
    <g transform="matrix(-0.211488,0,0,0.211488,99.4286,80.2596)">
        <path d="M0,514.542C0,514.542 18.893,500 16.893,490C14.893,480 0.893,456 8.893,446C16.893,436 36.893,377 35.893,364C34.893,351 29.893,342 32.893,322C35.893,302 54.893,269 53.893,249C52.893,229 42.893,185 49.893,164C56.893,143 86.893,93 90.893,79C94.893,65 89.893,30 85.893,21C81.893,12 83.893,0 82.893,9C81.893,18 44.893,156 44.893,170C44.893,184 33.893,277 27.893,306C21.893,335 1.893,453 -2.107,482C-6.107,511 0,514.542 0,514.542" style="fill:rgb(88,95,103);fill-rule:nonzero;"/>
    </g>
    <g transform="matrix(-0.211488,0,0,0.211488,78.1641,59.849)">
        <path d="M0,-230.98C-0.105,-230.987 -0.205,-230.983 -0.311,-230.967C-1.85,-230.734 -14.341,-228.742 -17.154,-224.99C-20.154,-220.99 -28.154,-214.99 -31.154,-203.99C-34.154,-192.99 -40.154,-169.99 -39.154,-160.99C-38.154,-151.99 -39.154,-109.99 -39.154,-116.99C-39.154,-123.99 -39.154,-137.99 -42.154,-139.99C-45.154,-141.99 -48.154,-143.99 -48.154,-140.99C-48.154,-137.99 -45.154,-138.99 -45.154,-133.99C-45.154,-128.99 -44.154,-124.99 -46.154,-119.99C-48.154,-114.99 -50.154,-105.99 -48.154,-100.99C-46.729,-97.426 -45.243,-92.85 -44.964,-89.421C-43.721,-74.128 -33.587,-88.572 -36.19,-89.287C-36.417,-89.349 -36.154,-89.755 -36.154,-89.99C-36.154,-92.99 -37.154,-83.99 -36.154,-75.99C-35.154,-67.99 -30.154,-35.99 -16.154,-22.99C-2.154,-9.99 3.846,-2.99 14.846,-0.99C25.846,1.01 50.846,2.01 59.846,-2.99C68.846,-7.99 94.846,-26.99 98.846,-40.99C100.018,-45.092 101.276,-50.137 102.468,-55.272C105.347,-67.664 107.846,-80.576 107.846,-81.99C107.846,-83.99 108.846,-78.99 109.846,-74.99C110.846,-70.99 112.846,-66.99 115.846,-71.99C118.846,-76.99 117.846,-81.99 120.846,-83.99C123.846,-85.99 127.846,-87.99 127.846,-91.99C127.846,-95.99 124.846,-115.99 125.846,-117.99C126.846,-119.99 130.846,-123.99 131.846,-124.99C132.846,-125.99 133.846,-130.99 129.846,-130.99C125.846,-130.99 122.846,-143.99 121.846,-167.99C120.846,-191.99 125.846,-200.99 113.846,-208.99C101.846,-216.99 53.846,-232.99 41.846,-230.99C30.349,-229.074 2.33,-230.83 0,-230.98" style="fill:rgb(245,215,204);fill-rule:nonzero;"/>
    </g>
    <g transform="matrix(-0.211488,0,0,0.211488,78.1641,59.849)">
        <path d="M0,-230.98C-0.105,-230.987 -0.205,-230.983 -0.311,-230.967C-1.85,-230.734 -14.341,-228.742 -17.154,-224.99C-20.154,-220.99 -28.154,-214.99 -31.154,-203.99C-34.154,-192.99 -40.154,-169.99 -39.154,-160.99C-38.154,-151.99 -39.154,-109.99 -39.154,-116.99C-39.154,-123.99 -39.154,-137.99 -42.154,-139.99C-45.154,-141.99 -48.154,-143.99 -48.154,-140.99C-48.154,-137.99 -45.154,-138.99 -45.154,-133.99C-45.154,-128.99 -44.154,-124.99 -46.154,-119.99C-48.154,-114.99 -50.154,-105.99 -48.154,-100.99C-46.729,-97.426 -45.243,-92.85 -44.964,-89.421C-43.721,-74.128 -33.587,-88.572 -36.19,-89.287C-36.417,-89.349 -36.154,-89.755 -36.154,-89.99C-36.154,-92.99 -37.154,-83.99 -36.154,-75.99C-35.154,-67.99 -30.154,-35.99 -16.154,-22.99C-2.154,-9.99 3.846,-2.99 14.846,-0.99C25.846,1.01 50.846,2.01 59.846,-2.99C68.846,-7.99 94.846,-26.99 98.846,-40.99C102.846,-54.99 107.846,-79.99 107.846,-81.99C107.846,-83.99 108.846,-78.99 109.846,-74.99C110.846,-70.99 112.846,-66.99 115.846,-71.99C118.846,-76.99 117.846,-81.99 120.846,-83.99C123.846,-85.99 127.846,-87.99 127.846,-91.99C127.846,-95.99 124.846,-115.99 125.846,-117.99C126.846,-119.99 130.846,-123.99 131.846,-124.99C132.846,-125.99 133.846,-130.99 129.846,-130.99C125.846,-130.99 122.846,-143.99 121.846,-167.99C120.846,-191.99 125.846,-200.99 113.846,-208.99C101.846,-216.99 53.846,-232.99 41.846,-230.99C30.349,-229.074 2.33,-230.83 0,-230.98Z" style="fill:none;fill-rule:nonzero;"/>
    </g>
    <g transform="matrix(-0.211488,0,0,0.211488,85.5988,199.644)">
        <path d="M0,-648C0,-648 -6,-637 -7,-625C-8,-613 -6,-596 0,-583C6,-570 23,-564 23,-559C23,-554 22,-553 27,-547L32,-541C32,-541 26,-532 28,-526C30,-520 28,-503 25,-493C22,-483 17.457,-464.18 17.457,-464.18L-7,-354C-7,-354 -9,-348 -13,-332C-17,-316 -32,-251 -32,-243C-32,-235 -36,-213 -36,-205C-36,-197 -42,-181 -42,-175C-42,-169 -48,-133 -49,-126C-50,-119 -51,-111 -54,-101C-57,-91 -64,-64 -65,-58C-66,-52 -70,-31 -72,-21L-75,-6C-75,-6 -61,0 -56,0L106,0C106,0 96,-36 93,-71C90,-106 84,-153 84,-160C84,-167 73,-281 73,-289C73,-297 69.494,-338.875 69.494,-338.875C69.494,-338.875 63,-467 63,-471C63,-475 67,-513 67,-513C67,-513 71,-539 77,-549C83,-559 106,-578 106,-584C106,-590 99,-592 106,-596C113,-600 117,-612 117,-612C117,-612 109.366,-602.897 97.183,-598.949C85,-595 60.712,-586.962 38.355,-599.481C16,-612 18,-608 14,-615C10,-622 5,-632.66 5,-632.66L0,-648Z" style="fill:rgb(254,248,245);fill-rule:nonzero;stroke:black;stroke-width:4.73px;"/>
    </g>
    <g transform="matrix(-0.211488,0,0,0.211488,83.8433,82.6743)">
        <path d="M0,-132.836C0,-132.836 -2.301,-134.918 -7.301,-128.918C-12.301,-122.918 -18.301,-120.918 -22.301,-111.918C-26.301,-102.918 -32.301,-91.918 -36.301,-80.918C-40.301,-69.918 -43.301,-43.918 -46.301,-34.918C-49.301,-25.918 -51.301,-6.918 -55.301,-3.918C-59.301,-0.918 -62.301,2.082 -48.301,0.082C-34.301,-1.918 -23.301,-10.918 -22.301,-15.918C-21.301,-20.918 -24.301,-24.918 -21.301,-22.918C-18.301,-20.918 -18.301,-12.918 -10.301,-11.918C-2.301,-10.918 14.565,-6.543 14.633,-3.231C14.699,0.082 12.699,-9.26 12.699,-9.26C12.699,-9.26 -1.301,-19.239 -3.301,-22.578C-5.301,-25.918 -15.301,-40.197 -15.301,-56.058C-15.301,-68.826 -3.301,-89.918 -4.995,-96.519C-5.186,-97.26 -3.753,-97.274 -3.511,-96.548L-3.301,-79.918L-3.301,-103.918L0,-132.836Z" style="fill:rgb(20,27,65);fill-rule:nonzero;stroke:black;stroke-width:3.55px;"/>
    </g>
    <g transform="matrix(-0.211488,0,0,0.211488,122.398,115.731)">
        <path d="M0,143.778L3,140.778C3,140.778 -5,203.778 -7,211.778C-9,219.778 -25,332.778 -26,346.778C-27,360.778 -30,383.778 -30,389.778L-30,396.778L99,396.778L114,318.778L125,270.778C125,270.778 132.906,218.275 133.453,213.527C134,208.778 137.632,192.311 138.316,186.545C139,180.778 146.64,117.38 150.82,108.579C155,99.778 156.417,82.926 158.208,76.352C160,69.778 173.427,13.822 173.427,13.822L189.42,-58.224C189.42,-58.224 201.376,-106.847 202.188,-112.534C203,-118.222 201.643,-133 201.643,-133L206,-144.222L197.442,-155.575L193.434,-162.495C193.434,-162.495 175,-167.222 172,-168.222C169,-169.222 166.916,-170.427 166.916,-170.427C166.916,-170.427 164.513,-174.763 162.756,-176.992C161,-179.222 160,-179.222 160,-179.222C160,-179.222 161,-175.222 160,-172.222C159,-169.222 154.731,-163.699 147.365,-160.46C140,-157.222 123.664,-155.575 123.664,-155.575L127,-160.222L129.634,-164.959C129.634,-164.959 144.238,-235.045 148.119,-242.634C152,-250.222 152.776,-253 152.776,-253C152.776,-253 138,-250.222 131,-246.222C124,-242.222 116,-239.222 108,-234.222C100,-229.222 86,-218.222 73,-218.222C60,-218.222 48,-214.222 37,-207.222C26,-200.222 20,-192.222 16,-192.222C12,-192.222 6,-188.222 4,-182.222C2,-176.222 -6,-168.222 -5,-162.222C-4,-156.222 -5,-133.222 -11,-121.222C-17,-109.222 -28,-78.222 -29,-69.222C-30,-60.222 -33,-45.222 -31,-36.222C-29,-27.222 -32,-17.222 -32,-18.222C-32,-19.222 -40,-22.222 -40,-18.222C-40,-14.222 -38,-11.222 -40,-8.222C-42,-5.222 -49,-2.222 -48,2.778C-47,7.778 -52,8.778 -53,10.778C-54,12.778 -58,19.778 -56,21.778C-54,23.778 -60,27.778 -57,29.778C-54,31.778 -57.857,34.826 -57.857,34.826C-57.857,34.826 -48.859,40.507 -43.43,48.142C-38,55.778 -20.404,106.094 -15.202,115.936C-10,125.778 0,143.778 0,143.778" style="fill:rgb(255,137,0);fill-rule:nonzero;"/>
    </g>
    <g transform="matrix(-0.211488,0,0,0.211488,122.398,115.731)">
        <path d="M0,143.778L3,140.778C3,140.778 -5,203.778 -7,211.778C-9,219.778 -25,332.778 -26,346.778C-27,360.778 -30,383.778 -30,389.778L-30,396.778L99,396.778L114,318.778L125,270.778C125,270.778 132.906,218.275 133.453,213.527C134,208.778 137.632,192.311 138.316,186.545C139,180.778 146.64,117.38 150.82,108.579C155,99.778 156.417,82.926 158.208,76.352C160,69.778 173.427,13.822 173.427,13.822L189.42,-58.224C189.42,-58.224 201.376,-106.847 202.188,-112.534C203,-118.222 201.643,-133 201.643,-133L206,-144.222L197.442,-155.575L193.434,-162.495C193.434,-162.495 175,-167.222 172,-168.222C169,-169.222 166.916,-170.427 166.916,-170.427C166.916,-170.427 164.513,-174.763 162.756,-176.992C161,-179.222 160,-179.222 160,-179.222C160,-179.222 161,-175.222 160,-172.222C159,-169.222 154.731,-163.699 147.365,-160.46C140,-157.222 123.664,-155.575 123.664,-155.575L127,-160.222L129.634,-164.959C129.634,-164.959 144.238,-235.045 148.119,-242.634C152,-250.222 152.776,-253 152.776,-253C152.776,-253 138,-250.222 131,-246.222C124,-242.222 116,-239.222 108,-234.222C100,-229.222 86,-218.222 73,-218.222C60,-218.222 48,-214.222 37,-207.222C26,-200.222 20,-192.222 16,-192.222C12,-192.222 6,-188.222 4,-182.222C2,-176.222 -6,-168.222 -5,-162.222C-4,-156.222 -5,-133.222 -11,-121.222C-17,-109.222 -28,-78.222 -29,-69.222C-30,-60.222 -33,-45.222 -31,-36.222C-29,-27.222 -32,-17.222 -32,-18.222C-32,-19.222 -40,-22.222 -40,-18.222C-40,-14.222 -38,-11.222 -40,-8.222C-42,-5.222 -49,-2.222 -48,2.778C-47,7.778 -52,8.778 -53,10.778C-54,12.778 -58,19.778 -56,21.778C-54,23.778 -60,27.778 -57,29.778C-54,31.778 -57.857,34.826 -57.857,34.826C-57.857,34.826 -48.859,40.507 -43.43,48.142C-38,55.778 -20.404,106.094 -15.202,115.936C-10,125.778 0,143.778 0,143.778" style="fill:none;fill-rule:nonzero;"/>
    </g>
    <g transform="matrix(-0.211488,0,0,0.211488,62.018,65.4555)">
        <path d="M0,605C-1,600 -34,518 -28,502C-22,486 -7,462 -9,446C-11,430 -43,351 -41,340C-39,329 -42,260 -47,233C-52,206 -55,131 -44.5,121.5C-34,112 -47,56 -26,53C-5,50 -23,23 0,19C23,15 50,0 31,53C12,106 21,161 31,207C41,253 4,213 24,330C44,447 0,605 0,605" style="fill:rgb(143,155,166);fill-rule:nonzero;"/>
    </g>
    <g transform="matrix(-0.211488,0,0,0.211488,52.6565,199.644)">
        <path d="M0,-668.042L26.235,-658C26.235,-658 30.235,-660 34.235,-656C38.235,-652 52.235,-645 56.235,-645C60.235,-645 61.235,-639 66.235,-639C71.235,-639 87.235,-630 95.235,-625C103.235,-620 137.235,-605 141.235,-601C145.235,-597 168.235,-553 168.235,-545C168.235,-537 171.235,-516 173.235,-510C175.235,-504 180.235,-475 177.235,-472C174.235,-469 181.235,-445 183.235,-441C185.235,-437 188.235,-422 187.235,-415C186.235,-408 183.235,-398 181.235,-398C179.235,-398 191.235,-389 192.235,-381C193.235,-373 188.235,-367 192.235,-359C196.235,-351 200.235,-344 200.235,-336C200.235,-328 196.235,-324 194.235,-324C192.235,-324 197.235,-307 196.235,-304C195.235,-301 193.235,-297 193.235,-293C193.235,-289 195.235,-289 195.235,-284C195.235,-279 193.235,-267 192.235,-263C191.235,-259 187.686,-252.019 187.686,-252.019C187.686,-252.019 190.839,-257.289 187.037,-265.644C183.235,-274 170.745,-290.515 162.99,-299.757C155.235,-309 138.691,-322.824 119.463,-326.912C100.235,-331 74.324,-335.813 74.324,-335.813C74.324,-335.813 83.235,-220 86.235,-210C89.235,-200 89.235,-185 93.235,-177C97.235,-169 96.235,-142 100.235,-134C104.235,-126 115.235,-72 113.235,-63C111.235,-54 116.235,-29 117.235,-27C118.235,-25 104.235,0 100.235,0L-49.765,0C-49.765,0 -59.144,-40.152 -58.954,-42.076C-58.765,-44 -69.052,-132.003 -69.052,-132.003L-80.189,-256.67L-87.625,-365.707C-87.625,-365.707 -92.292,-471.48 -91.528,-485.739C-90.765,-500 -89.02,-539.052 -72.892,-556.526C-56.765,-574 -47.765,-579 -49.765,-584C-51.765,-589 -51.765,-593 -51.765,-593C-51.765,-593 -46.903,-591.701 -42.334,-594.85C-37.765,-598 -23.765,-613 -23.765,-613C-23.765,-613 -14.701,-605.086 -11.733,-602.043C-8.765,-599 3.987,-594.873 14.111,-594.936C24.235,-595 26.235,-595 26.235,-595C26.235,-595 25.677,-597.607 22.956,-598.803C20.235,-600 15.122,-603.635 15.122,-603.635C15.122,-603.635 9.875,-625.385 9.055,-631.692C8.235,-638 6.281,-654.722 3.758,-660.361C1.235,-666 0,-668.042 0,-668.042" style="fill:rgb(255,137,0);fill-rule:nonzero;"/>
    </g>
    <g transform="matrix(-0.211488,0,0,0.211488,288.521,-10.6801)">
        <clipPath id="_clip1">
            <path d="M1119.02,334.138C1121.55,339.777 1123.5,356.5 1124.32,362.807C1125.14,369.114 1130.39,390.865 1130.39,390.865C1130.39,390.865 1135.5,394.5 1138.22,395.697C1140.94,396.893 1141.5,399.5 1141.5,399.5C1141.5,399.5 1139.5,399.5 1129.38,399.563C1119.25,399.626 1106.5,395.5 1103.53,392.457C1100.56,389.413 1091.5,381.5 1091.5,381.5C1091.5,381.5 1077.5,396.5 1072.93,399.65C1068.36,402.799 1063.5,401.5 1063.5,401.5C1063.5,401.5 1063.5,405.5 1065.5,410.5C1067.5,415.5 1058.5,420.5 1042.37,437.973C1026.25,455.448 1024.5,494.5 1023.74,508.76C1022.97,523.02 1027.64,628.793 1027.64,628.793L1035.08,737.829L1046.21,862.496C1046.21,862.496 1056.5,950.5 1056.31,952.424C1056.12,954.347 1065.5,994.5 1065.5,994.5L1215.5,994.5C1219.5,994.5 1233.5,969.5 1232.5,967.5C1231.5,965.5 1226.5,940.5 1228.5,931.5C1230.5,922.5 1219.5,868.5 1215.5,860.5C1211.5,852.5 1212.5,825.5 1208.5,817.5C1204.5,809.5 1204.5,794.5 1201.5,784.5C1198.5,774.5 1189.59,658.687 1189.59,658.687C1189.59,658.687 1215.5,663.5 1234.73,667.588C1253.96,671.675 1270.5,685.5 1278.26,694.742C1286.01,703.984 1298.5,720.5 1302.3,728.855C1305.45,735.775 1303.83,740.578 1303.18,742.025C1303.98,740.411 1306.65,734.887 1307.5,731.5C1308.5,727.5 1310.5,715.5 1310.5,710.5C1310.5,705.5 1308.5,705.5 1308.5,701.5C1308.5,697.5 1310.5,693.5 1311.5,690.5C1312.5,687.5 1307.5,670.5 1309.5,670.5C1311.5,670.5 1315.5,666.5 1315.5,658.5C1315.5,650.5 1311.5,643.5 1307.5,635.5C1303.5,627.5 1308.5,621.5 1307.5,613.5C1306.5,605.5 1294.5,596.5 1296.5,596.5C1298.5,596.5 1301.5,586.5 1302.5,579.5C1303.5,572.5 1300.5,557.5 1298.5,553.5C1296.5,549.5 1289.5,525.5 1292.5,522.5C1295.5,519.5 1290.5,490.5 1288.5,484.5C1286.5,478.5 1283.5,457.5 1283.5,449.5C1283.5,441.5 1260.5,397.5 1256.5,393.5C1252.5,389.5 1218.5,374.5 1210.5,369.5C1202.5,364.5 1186.5,355.5 1181.5,355.5C1176.5,355.5 1175.5,349.5 1171.5,349.5C1167.5,349.5 1153.5,342.5 1149.5,338.5C1145.5,334.5 1141.5,336.5 1141.5,336.5L1115.27,326.458C1115.27,326.458 1116.5,328.5 1119.02,334.138ZM1302.95,742.48C1302.95,742.48 1303.04,742.325 1303.18,742.025C1303.03,742.316 1302.95,742.48 1302.95,742.48Z" clip-rule="nonzero"/>
        </clipPath>
        <g clip-path="url(#_clip1)">
            <g transform="matrix(1,0,0,1,1141,419)">
                <path d="M0,214C0,214 -27,136 -14,95C-1,54 -40,56 -22,28C-4,0 -92,74 -58,91C-24,108 -21,146 -34,154C-47,162 -44,158 -22,186L0,214Z" style="fill:rgb(143,155,166);fill-rule:nonzero;"/>
            </g>
            <g transform="matrix(1,0,0,1,1309,650)">
                <path d="M0,52C0,52 -58,-16 -67,-10C-76,-4 -65,-27 -36,26C-7,79 -6.698,78.855 -6.698,78.855C-6.698,78.855 -0.762,78.417 0.619,69.708C2,61 0,52 0,52" style="fill:rgb(143,155,166);fill-rule:nonzero;"/>
            </g>
            <g transform="matrix(1,0,0,1,1307,636)">
                <path d="M0,42C0,42 -6,10 -28,-2C-50,-14 -69,-16 -70,-12C-71,-8 -55,-19 -35,-1C-15,17 0,45 1,53C2,61 0,42 0,42" style="fill:rgb(143,155,166);fill-rule:nonzero;"/>
            </g>
            <g transform="matrix(0.673222,-0.73944,-0.73944,-0.673222,1322.61,617.262)">
                <path d="M-33.5,-14.805C-33.5,-14.805 -2.19,33.988 -18.215,54.559C-34.239,75.131 -33.5,75.805 -33.5,75.805C-33.5,75.805 -13.436,50.796 -20.885,27.785C-28.335,4.774 -33.5,-14.805 -33.5,-14.805" style="fill:rgb(143,155,166);fill-rule:nonzero;"/>
            </g>
            <g transform="matrix(1,0,0,1,1206,430)">
                <path d="M0,335C10,286 23.273,243.167 12.637,221.583C2,200 -18,130 -18,103C-18,76 -23,18 -27,9C-31,0 -24,36 -27,85C-30,134 -17,142 -13,170C-9,198 5,221 2,249C-1,277 0,335 0,335" style="fill:rgb(88,95,103);fill-rule:nonzero;"/>
            </g>
            <g transform="matrix(1,0,0,1,1223.63,648.543)">
                <path d="M0,-26.086C0,-26.086 31.368,-50.543 46.368,-34.543C61.368,-18.543 89.368,15.457 86.368,22.457C83.368,29.457 98.368,-13.543 64.368,-34.543C30.368,-55.543 6.368,-51.543 5.368,-43.543C4.368,-35.543 0,-26.086 0,-26.086" style="fill:rgb(88,95,103);fill-rule:nonzero;"/>
            </g>
            <g transform="matrix(-0.229043,0.973416,0.973416,0.229043,1263.75,621.025)">
                <path d="M46.356,-24.756C46.356,-24.756 23.698,-15.818 35.514,13.709C47.329,43.237 46.356,43.008 46.356,43.008C46.356,43.008 13.603,-9.9 23.452,-16.828C33.301,-23.757 46.356,-24.756 46.356,-24.756" style="fill:rgb(88,95,103);fill-rule:nonzero;"/>
            </g>
        </g>
    </g>
    <g transform="matrix(-0.211488,0,0,0.211488,52.6565,199.644)">
        <path d="M0,-668.042L26.235,-658C26.235,-658 30.235,-660 34.235,-656C38.235,-652 52.235,-645 56.235,-645C60.235,-645 61.235,-639 66.235,-639C71.235,-639 87.235,-630 95.235,-625C103.235,-620 137.235,-605 141.235,-601C145.235,-597 168.235,-553 168.235,-545C168.235,-537 171.235,-516 173.235,-510C175.235,-504 180.235,-475 177.235,-472C174.235,-469 181.235,-445 183.235,-441C185.235,-437 188.235,-422 187.235,-415C186.235,-408 183.235,-398 181.235,-398C179.235,-398 191.235,-389 192.235,-381C193.235,-373 188.235,-367 192.235,-359C196.235,-351 200.235,-344 200.235,-336C200.235,-328 196.235,-324 194.235,-324C192.235,-324 197.235,-307 196.235,-304C195.235,-301 193.235,-297 193.235,-293C193.235,-289 195.235,-289 195.235,-284C195.235,-279 193.235,-267 192.235,-263C191.235,-259 187.686,-252.019 187.686,-252.019C187.686,-252.019 190.839,-257.289 187.037,-265.644C183.235,-274 170.745,-290.515 162.99,-299.757C155.235,-309 138.691,-322.824 119.463,-326.912C100.235,-331 74.324,-335.813 74.324,-335.813C74.324,-335.813 83.235,-220 86.235,-210C89.235,-200 89.235,-185 93.235,-177C97.235,-169 96.235,-142 100.235,-134C104.235,-126 115.235,-72 113.235,-63C111.235,-54 116.235,-29 117.235,-27C118.235,-25 104.235,0 100.235,0L-49.765,0C-49.765,0 -59.144,-40.152 -58.954,-42.076C-58.765,-44 -69.052,-132.003 -69.052,-132.003L-80.189,-256.67L-87.625,-365.707C-87.625,-365.707 -92.292,-471.48 -91.528,-485.739C-90.765,-500 -89.02,-539.052 -72.892,-556.526C-56.765,-574 -47.765,-579 -49.765,-584C-51.765,-589 -51.765,-593 -51.765,-593C-51.765,-593 -46.903,-591.701 -42.334,-594.85C-37.765,-598 -23.765,-613 -23.765,-613C-23.765,-613 -14.701,-605.086 -11.733,-602.043C-8.765,-599 3.987,-594.873 14.111,-594.936C24.235,-595 26.235,-595 26.235,-595C26.235,-595 25.677,-597.607 22.956,-598.803C20.235,-600 15.122,-603.635 15.122,-603.635C15.122,-603.635 9.875,-625.385 9.055,-631.692C8.235,-638 6.281,-654.722 3.758,-660.361C1.235,-666 0,-668.042 0,-668.042Z" style="fill:none;fill-rule:nonzero;"/>
    </g>
    <g transform="matrix(-0.211488,0,0,0.211488,91.2236,74.4437)">
        <path d="M0,-45.66C0,-45.66 -37.404,-21 -57.404,-17C-77.404,-13 -117.404,-2 -121.404,-1C-125.404,0 -111.404,-6 -92.404,-12C-73.404,-18 -61.404,-19 -45.404,-27C-29.404,-35 0,-45.66 0,-45.66" style="fill:rgb(88,95,103);fill-rule:nonzero;"/>
    </g>
    <g transform="matrix(-0.211488,0,0,0.211488,51.8665,72.8575)">
        <path d="M0,-61C0,-61 2.326,-60.127 5.96,-58.638C8.974,-57.401 12.888,-55.741 17.119,-53.8C26.704,-49.404 37.92,-43.574 44,-38C56,-27 114,-2 121,-2L138,-2C138,-2 112,0 107,-2C102,-4 64,-23 57,-26C50,-29 0,-61 0,-61" style="fill:rgb(88,95,103);fill-rule:nonzero;"/>
    </g>
    <g transform="matrix(-0.211488,0,0,0.211488,134.558,143.494)">
        <path d="M0,-102C0,-102 25,-91 32,-69C39,-47 51,-12 57,-6C63,0 40.64,-19.961 37.32,-27.48C34,-35 21.491,-77.361 12.246,-85.681C3,-94 -0.357,-96.452 -0.357,-96.452C-0.357,-96.452 4.08,-95.44 2.04,-98.72L0,-102Z" style="fill:rgb(88,95,103);fill-rule:nonzero;"/>
    </g>
    <g transform="matrix(-0.211488,0,0,0.211488,132.884,139.899)">
        <path d="M0,-106.529C0,-106.529 31.085,-93 35.085,-81C39.085,-69 34.085,-44 47.085,-22L60.085,0C60.085,0 37.085,-29 35.085,-39C33.085,-49 38.085,-59 30.085,-72C22.085,-85 16.085,-96 10.085,-96C4.085,-96 -2.915,-103 -2.915,-103L0,-106.529Z" style="fill:rgb(88,95,103);fill-rule:nonzero;"/>
    </g>
    <g transform="matrix(-0.211488,0,0,0.211488,121.657,120.231)">
        <path d="M0,117C0,117 10,117 -3,93C-16,69 -26,45 -27,35C-28,25 -35,13 -42,8C-49,3 -56,5 -56,5C-56,5 -38,0 -34,8C-30,16 -26,32 -22,41C-18,50 -11,78 -3,88C5,98 9,104 7,110C5,116 0,117 0,117" style="fill:rgb(143,155,166);fill-rule:nonzero;"/>
    </g>
    <g transform="matrix(-0.211488,0,0,0.211488,121.446,92.3144)">
        <path d="M0,251C0,251 12.495,230.899 20.267,207.917C23.04,199.718 25.211,191.151 26,183C29,152 48,105 42,79C36,53 74,28 63,0L74,28C74,28 48,81 47,129C46,177 0,251 0,251" style="fill:rgb(143,155,166);fill-rule:nonzero;"/>
    </g>
    <g transform="matrix(-0.211488,0,0,0.211488,121.975,83.9606)">
        <path d="M0,291C0,291 49,230 54,193C59,156 68,90 77,72C86,54 77,35 77,17L77,0C77,0 75,26 74,47C73,68 60.75,72.935 59.875,101.467C59,130 46.224,154.914 46.112,174.957C46,195 35.494,211.108 31.247,228.055C27,245 0,291 0,291" style="fill:rgb(88,95,103);fill-rule:nonzero;"/>
    </g>
    <g transform="matrix(-0.211488,0,0,0.211488,37.4854,84.7008)">
        <path d="M0,61C0,61 8.253,21.332 25.707,10.666C43.161,0 41.998,0 41.998,0C41.998,0 17.562,5.925 15.234,11.851C12.907,17.776 9.417,20.146 5.926,30.812C2.435,41.478 0,61 0,61" style="fill:rgb(88,95,103);fill-rule:nonzero;"/>
    </g>
    <g transform="matrix(-0.211488,0,0,0.211488,72.2629,36.9222)">
        <path d="M0,-47.083C1.168,-39.592 1.947,-27.822 1.168,-20.331C0.39,-12.84 1.168,-6.42 0,-3.209C-1.168,0 -1.558,0 -1.558,0C-1.558,0 1.168,0 1.558,-9.63C1.947,-19.261 2.726,-26.751 2.336,-32.102C1.947,-37.452 0,-47.083 0,-47.083Z" style="fill-rule:nonzero;stroke:black;stroke-width:3.55px;"/>
    </g>
    <g transform="matrix(-0.211488,0,0,0.211488,57.2595,74.4437)">
        <path d="M0,-97C0,-97 2,-91 10,-85C18,-79 19,-82 24,-72C29,-62 29,-46 32,-34C35,-22 34,-11 40,-9C46,-7 50,-3 46,-3C42,-3 18,-2 13,-7C8,-12 0,-21 -2,-21C-4,-21 -8,-13 -12,-9C-16,-5 -21,-2 -26,-1C-31,0 -30,-1 -30,-1C-30,-1 -20,-11 -17,-20C-14,-29 0.424,-65.301 0.424,-65.301C0.424,-65.301 2,-76 2,-82C2,-88 0,-97 0,-97Z" style="fill:rgb(20,27,65);fill-rule:nonzero;stroke:black;stroke-width:3.55px;"/>
    </g>
    <g transform="matrix(-0.211488,0,0,0.211488,84.9644,59.6395)">
        <path d="M0,27C0,27 1,20 2,5C3,-10 5,-41 5,-41C5,-41 19.161,-14.25 29.081,-8.125C39,-2 60.512,3.836 73.756,1.418C76.469,0.922 79.857,-0.191 83.584,-1.743C98.049,-7.765 117.619,-20.387 122.66,-29.074C129,-40 130,-44 130,-38C130,-32 130,-23 133,-19C136,-15 131.948,-11.127 131,5C130,22 114,45 112,50C110,55 96,62 87,65C78,68 60,71 49,68C38,65 15,56 9,47C3,38 0,27 0,27" style="fill:rgb(245,215,204);fill-rule:nonzero;"/>
    </g>
    <g transform="matrix(-0.211488,0,0,0.211488,288.521,-10.6801)">
        <clipPath id="_clip2">
            <path d="M964.5,337.5C963.5,352.5 962.5,359.5 962.5,359.5C962.5,359.5 965.5,370.5 971.5,379.5C977.5,388.5 1000.5,397.5 1011.5,400.5C1022.5,403.5 1040.5,400.5 1049.5,397.5C1058.5,394.5 1072.5,387.5 1074.5,382.5C1076.5,377.5 1092.5,354.5 1093.5,337.5C1094.45,321.373 1098.5,317.5 1095.5,313.5C1092.5,309.5 1092.5,300.5 1092.5,294.5C1092.5,288.5 1091.5,292.5 1085.16,303.426C1080.12,312.113 1060.55,324.735 1046.08,330.757C1042.36,332.309 1038.97,333.422 1036.26,333.918C1023.01,336.336 1001.5,330.5 991.581,324.375C981.661,318.25 967.5,291.5 967.5,291.5C967.5,291.5 965.5,322.5 964.5,337.5Z" clip-rule="nonzero"/>
        </clipPath>
        <g clip-path="url(#_clip2)">
            <g transform="matrix(1,0,0,1,1054.5,368.5)">
                <path d="M0,-38C0,-38 13,-24 5,-10C-3,4 -44,0 -30,19C-16,38 -19,53 9,33C37,13 76,-23 67,-42C58,-61 47,-91 34,-81C21,-71 0,-38 0,-38" style="fill:rgb(226,179,161);fill-rule:nonzero;"/>
            </g>
            <g transform="matrix(1,0,0,1,988.644,387.9)">
                <path d="M0,-65.8C0,-65.8 -19.644,-60.9 -6.644,-46.9C6.356,-32.9 20.356,-19.9 11.356,-12.9C2.356,-5.9 1.356,4.1 15.356,14.1C29.356,24.1 -3.644,34.1 -15.644,21.1C-27.644,8.1 -37.644,-4.9 -37.644,-27.9C-37.644,-50.9 -34.644,-69.9 -28.644,-69.9C-22.644,-69.9 -22.644,-99.9 -22.644,-99.9C-22.644,-99.9 4.356,-83.9 2.356,-74.9C0.356,-65.9 0,-65.8 0,-65.8" style="fill:rgb(254,248,245);fill-rule:nonzero;"/>
            </g>
        </g>
    </g>
    <g transform="matrix(-0.211488,0,0,0.211488,84.9644,59.6395)">
        <path d="M0,27C0,27 1,20 2,5C3,-10 5,-41 5,-41C5,-41 19.161,-14.25 29.081,-8.125C39,-2 60.512,3.836 73.756,1.418C76.469,0.922 79.857,-0.191 83.584,-1.743C98.049,-7.765 117.619,-20.387 122.66,-29.074C129,-40 130,-44 130,-38C130,-32 130,-23 133,-19C136,-15 131.948,-11.127 131,5C130,22 114,45 112,50C110,55 96,62 87,65C78,68 60,71 49,68C38,65 15,56 9,47C3,38 0,27 0,27Z" style="fill:none;fill-rule:nonzero;"/>
    </g>
    <g transform="matrix(-0.211488,0,0,0.211488,31.6695,142.543)">
        <path d="M0,246C-22,196 -67,153 -87,102C-107,51 -121,40 -121,20C-121,0 -149,15.097 -121,62.048C-93,109 -42.849,184.039 -44.924,196.52C-47,209 0,246 0,246" style="fill:rgb(88,95,103);fill-rule:nonzero;"/>
    </g>
    <g transform="matrix(-0.211488,0,0,0.211488,80.8404,17.6592)">
        <path d="M0,-4C0,-4 19,3 28,-4C37,-11 62,-15 70,-1C78,13 86,-12 103,-1C120,10 106,21 120,32C134,43 143,33 138,17C133,1 125,-31 103,-31C81,-31 52,-47 36,-40C20,-33 13,-41 6,-32C-1,-23 -11,-24 -9,-19C-7,-14 0,-4 0,-4" style="fill:rgb(226,179,161);fill-rule:nonzero;"/>
    </g>
    <g transform="matrix(-0.211488,0,0,0.211488,60.5375,54.8811)">
        <path d="M0,-116C0,-116 -18,-121 -13,-125C-8,-129 -25,-134 -27,-128C-29,-122 -35,-124 -36,-121C-37,-118 -43,-122 -40,-115C-37,-108 -33,-98 -38,-93C-43,-88 -49,-82 -41,-81C-33,-80 -29,-86.721 -26.5,-84.861C-24,-83 -21.245,-73 -23.623,-72.5C-26,-72 -23,-70 -15,-60C-7,-50 -12.098,-39.745 -14.549,-39.373C-17,-39 -32.614,-26.043 -39.808,-24.021C-47,-22 -52,-24 -51,-17C-50,-10 -38,-5 -43,1C-48,7 -56.701,9.374 -52.851,12.187C-49,15 -31,18 -22,3C-13,-12 4,-43 0,-51C-4,-59 -14,-65 -15,-74C-16,-83 -15,-86 -20,-93C-25,-100 -15,-96 -11,-98C-7,-100 -4,-99 3,-105C10,-111 0,-116 0,-116" style="fill:rgb(226,179,161);fill-rule:nonzero;"/>
    </g>
    <g transform="matrix(-0.211488,0,0,0.211488,79.8887,58.4763)">
        <path d="M0,-218.344C0,-218.344 -4.5,-207 3.5,-201C11.5,-195 23.5,-183 22.5,-173C21.5,-163 35.5,-161 33.5,-157C31.5,-153 10.55,-153 16.524,-149C22.5,-145 26.5,-146 20.5,-142C14.5,-138 6.092,-135.194 2.296,-133.597C-1.5,-132 -6.5,-131 -1.5,-125C3.5,-119 20.5,-113 16.5,-102C12.5,-91 -7.5,-82 -0.5,-77C6.5,-72 -3.5,-73 3.5,-68C10.5,-63 16.5,-44 25.5,-39C34.5,-34 55.5,-23 51.5,-16C47.5,-9 38.5,0 33.5,-3C28.5,-6 10.5,-16 5.5,-31C0.5,-46 -3.5,-76 -3.5,-65C-3.5,-54 2.5,-31 -3.5,-39C-9.5,-47 -16.5,-56 -14.5,-61C-12.5,-66 -11.5,-69 -17.5,-68C-23.5,-67 -28.5,-71 -26.5,-81C-24.5,-91 -25.5,-87 -26.5,-104C-27.5,-121 -35.651,-143 -30.076,-150.5C-24.5,-158 -18.5,-184 -17.5,-193C-16.5,-202 0,-218.344 0,-218.344" style="fill:rgb(254,248,245);fill-rule:nonzero;"/>
    </g>
    <g transform="matrix(-0.211488,0,0,0.211488,71.1119,40.2884)">
        <path d="M0,-65C0,-65 12.02,-51.082 10.01,-41.041C8,-31 13.338,-41.611 12.169,-28.305C11,-15 1,-8 5,-10C9,-12 12,-5 6,0C0,5 -3,4 -3,-7C-3,-18 3,-27 0,-41C-3,-55 -7,-70 -3,-70C1,-70 0,-65 0,-65" style="fill:rgb(254,248,245);fill-rule:nonzero;"/>
    </g>
    <g transform="matrix(-0.211488,0,0,0.211488,81.7921,32.2199)">
        <path d="M0,-100.349C0,-100.349 12.888,-103 10.944,-99.175C9,-95.349 -1,-90.349 -3,-83.349C-5,-76.349 -5,-75.349 -8,-72.349C-11,-69.349 -5,-68.349 -5,-63.349C-5,-58.349 -6,-50.349 -9,-38.349C-12,-26.349 -18,-24.349 -18,-18.349C-18,-12.349 -14,-5.349 -18,-1.349C-22,2.651 -23,-7.349 -25,-9.349C-27,-11.349 -29,-21.349 -28,-29.349C-27,-37.349 -28,-54.349 -25,-60.349C-22,-66.349 -22,-77.349 -15,-85.349C-8,-93.349 -4,-100.349 -2,-100.349L0,-100.349Z" style="fill-rule:nonzero;stroke:black;stroke-width:3.55px;"/>
    </g>
    <g transform="matrix(-0.211488,0,0,0.211488,82.215,25.167)">
        <path d="M0,-69C0,-69 -0.437,-68.75 -1.109,-68.5C-3.125,-67.75 -7.25,-67 -8,-73C-9,-81 -7,-70 -1,-70C5,-70 -5,-69 -4,-82C-3,-95 -7,-81 0,-75C7,-69 -6,-77 0,-93L6,-109C6,-109 4,-95 1,-90C-2,-85 1,-80 2,-79C3,-78 1,-92 8,-101C15,-110 28,-117 28,-117C28,-117 21,-110 16,-106C11,-102 6,-96 6,-92L6,-88C6,-88 3,-84 5,-80C7,-76 6,-94 10,-98C14,-102 14,-106 24,-109C34,-112 41,-115 41,-115C41,-115 25,-109 21,-106C17,-103 12,-99 11,-95C10,-91 8,-84 8,-82C8,-80 10,-97 18,-102C26,-107 37,-113 41,-114C45,-115 57,-119 61,-119C65,-119 82,-115 83,-113C84,-111 84,-114 73,-115C62,-116 56,-117 46,-113C36,-109 22,-100 19,-96C16,-92 10,-86 11,-84C12,-82 13,-90 25,-98C37,-106 31,-106 44,-110C57,-114 56,-116 67,-114C78,-112 80,-113 88,-112C96,-111 107,-111 112,-105C117,-99 115,-102 123,-100C131,-98 146,-85 148,-82C150,-79 151,-79 141,-86C131,-93 139,-84 147,-78C155,-72 155,-70 158,-64C161,-58 160,-58 163,-54L166,-50C166,-50 156,-62 155,-67C154,-72 158,-60 160,-54C162,-48 163,-44 162,-43C161,-42 155,-51 154,-49C153,-47 160,-47 161,-43C162,-39 163,-40 156,-44C149,-48 159,-42 159,-39C159,-36 155,-43 152,-43C149,-43 156,-42 156,-38C156,-34 153,-30 154,-29C155,-28 155,-31 156,-28C157,-25 161,-25 157,-25C153,-25 152,-26 154,-24C156,-22 156,-25 156,-22C156,-19 155,-19 154,-19C153,-19 152,-19 154,-17C156,-15 156,-15 155,-14C154,-13 156,-1 154,3C152,7 151,9 151,13C151,17 150,22 149,25C148,28 148,30 147,33C146,36 141,38 138,43C135,48 132,50 132,46C132,42 130,35 133,28C136,21 136,20 133,17C130,14 127,3 129,-3C131,-9 131,-12 130,-19C129,-26 129,-26 129,-30C129,-34 125,-40 119,-45C113,-50 112,-53 103,-51L94,-49C94,-49 103,-54 109,-54C115,-54 96,-55 94,-52C92,-49 87,-45 90,-50C93,-55 88,-56 87,-53C86,-50 83,-45 84,-50C85,-55 84,-52 79,-52C74,-52 68,-54 67,-53C66,-52 66,-55 67,-56C68,-57 63,-53 61,-55C59,-57 58,-59 55,-59C52,-59 49,-52 50,-57C51,-62 54,-67 51,-62C48,-57 48,-53 47,-57C46,-61 46,-55 44,-58C42,-61 45,-62 37,-62C29,-62 30,-62 26,-65C22,-68 21,-61 18,-63C15,-65 16,-67 12,-68C8,-69 0,-69 0,-69Z" style="fill-rule:nonzero;stroke:black;stroke-width:3.55px;"/>
    </g>
    <g transform="matrix(-0.211488,0,0,0.211488,66.142,30.4542)">
        <path d="M0,-15C0,-15 0,-18 6,-18C12,-18 29,-18 31,-16C33,-14 39,-11 41,-5C43,1 44,3 44,3C44,3 35,-5 32,-7C29,-9 19,-11 13,-11C7,-11 0,-9 0,-12L0,-15Z" style="fill-rule:nonzero;stroke:black;stroke-width:3.55px;"/>
    </g>
    <g transform="matrix(-0.211488,0,0,0.211488,73.3325,26.6475)">
        <path d="M0,3C0,3 -2,-4 -6,-4C-10,-4 -29,-6 -29,-6C-29,-6 -36,-2 -39,0C-42,2 -45,9 -45,9L-37,5C-33,3 -30,-1 -26,0C-22,1 -10,1 -8,2C-6,3 0,3 0,3Z" style="fill-rule:nonzero;stroke:black;stroke-width:3.55px;"/>
    </g>
    <g transform="matrix(-0.211488,0,0,0.211488,80.5231,29.8198)">
        <path d="M0,3C0,3 4,1 9,-1C14,-3 20,-4 27,1C34,6 33,6 33,6L27,6C20,6 12,7 7,6C2,5 0,3 0,3" style="fill:white;fill-rule:nonzero;"/>
    </g>
    <g transform="matrix(-0.211488,0,0,0.211488,288.521,-10.6801)">
        <clipPath id="_clip3">
            <path d="M992.5,190.5C987.5,192.5 983.5,194.5 983.5,194.5C983.5,194.5 985.5,196.5 990.5,197.5C995.5,198.5 1003.5,197.5 1010.5,197.5L1016.5,197.5C1016.5,197.5 1017.5,197.5 1010.5,192.5C1006.74,189.816 1003.27,188.861 1000.09,188.861C997.348,188.861 994.817,189.573 992.5,190.5Z" clip-rule="nonzero"/>
        </clipPath>
        <g clip-path="url(#_clip3)">
            <g transform="matrix(0,-1,-1,0,1001,186.5)">
                <path d="M-6.5,-6.5C-8.985,-6.5 -11,-3.59 -11,0C-11,3.59 -8.985,6.5 -6.5,6.5C-4.015,6.5 -2,3.59 -2,0C-2,-3.59 -4.015,-6.5 -6.5,-6.5" style="fill-rule:nonzero;"/>
            </g>
            <g transform="matrix(0,-1,-1,0,1001,186.5)">
                <ellipse cx="-6.5" cy="0" rx="4.5" ry="6.5" style="fill:none;stroke:black;stroke-width:2.36px;"/>
            </g>
        </g>
    </g>
    <g transform="matrix(-0.211488,0,0,0.211488,80.5231,29.8198)">
        <path d="M0,3C0,3 4,1 9,-1C14,-3 20,-4 27,1C34,6 33,6 33,6L27,6C20,6 12,7 7,6C2,5 0,3 0,3Z" style="fill:none;fill-rule:nonzero;stroke:black;stroke-width:2.36px;"/>
    </g>
    <g transform="matrix(-0.211488,0,0,0.211488,65.9305,31.5568)">
        <path d="M0,-3.428C0,-3.428 1.115,-3.746 2.877,-4.146C5.834,-4.816 10.613,-5.714 15,-5.714C22,-5.714 31,-1.142 33,0.001C35,1.143 18,2.286 12,2.286C6,2.286 -8,1.143 -5,0.001C-2,-1.142 0,-3.428 0,-3.428" style="fill:white;fill-rule:nonzero;"/>
    </g>
    <g transform="matrix(-0.211488,0,0,0.211488,288.521,-10.6801)">
        <clipPath id="_clip4">
            <path d="M1055.38,195.568C1053.62,195.967 1052.5,196.286 1052.5,196.286C1052.5,196.286 1050.5,198.572 1047.5,199.715C1044.5,200.857 1058.5,202 1064.5,202C1070.5,202 1087.5,200.857 1085.5,199.715C1083.5,198.572 1074.5,194 1067.5,194C1063.11,194 1058.33,194.898 1055.38,195.568Z" clip-rule="nonzero"/>
        </clipPath>
        <g clip-path="url(#_clip4)">
            <g transform="matrix(0,-1,-1,0,1065.5,192)">
                <path d="M-6,-6C-8.209,-6 -10,-3.313 -10,0C-10,3.313 -8.209,6 -6,6C-3.791,6 -2,3.313 -2,0C-2,-3.313 -3.791,-6 -6,-6" style="fill-rule:nonzero;"/>
            </g>
            <g transform="matrix(0,-1,-1,0,1065.5,192)">
                <ellipse cx="-6" cy="0" rx="4" ry="6" style="fill:none;stroke:black;stroke-width:2.36px;"/>
            </g>
        </g>
    </g>
    <g transform="matrix(-0.211488,0,0,0.211488,65.9305,31.5568)">
        <path d="M0,-3.428C0,-3.428 1.115,-3.746 2.877,-4.146C5.834,-4.816 10.613,-5.714 15,-5.714C22,-5.714 31,-1.142 33,0.001C35,1.143 18,2.286 12,2.286C6,2.286 -8,1.143 -5,0.001C-2,-1.142 0,-3.428 0,-3.428Z" style="fill:none;fill-rule:nonzero;stroke:black;stroke-width:2.36px;"/>
    </g>
    <g transform="matrix(-0.211488,0,0,0.211488,86.4448,10.7258)">
        <path d="M0,94.284L-8,79.284L-6,81.284L-8,74.284L-4,81.284C-4,81.284 -5.088,79.107 -6.148,76.784C-7.36,74.129 -8.533,71.284 -8,71.284C-7,71.284 -7,68.284 -7,68.284C-7,68.284 -7,71.284 -6,72.284C-5,73.284 -7,63.284 -7,64.284C-7,65.284 -5,70.284 -5,70.284L-7,61.284L-5.556,65.609C-5.556,65.609 -7,56.284 -6,58.284C-5,60.284 -4,63.284 -4,63.284C-4,63.284 -7.5,53.784 -6.5,52.784C-5.5,51.784 -6.987,52.995 -5.243,55.889C-3.5,58.784 -6.5,50.784 -6.5,50.784L-3.5,56.784C-3.5,56.784 -3.851,55.318 -4.203,53.559C-4.737,50.896 -5.276,47.563 -4.608,47.646C-3.5,47.784 -3.5,41.784 -3.5,47.784C-3.5,53.784 -2.5,46.784 -2.5,47.784C-2.5,48.784 -5.5,39.784 -4.5,39.784C-3.5,39.784 -5.395,39.913 -3.447,42.349C-1.5,44.784 -2.5,35.784 -2.5,35.784C-2.5,35.784 -1.556,50.892 -1.502,42.571C-1.501,42.329 -1.5,42.067 -1.5,41.784L-1.5,31.784C-1.5,31.784 -1.5,37.784 -0.5,37.784C0.5,37.784 -0.5,29.784 -0.5,29.784L1.5,33.784L1.5,26.276C1.5,26.276 1.763,14.892 2.631,23.338C3.5,31.784 3.5,19.784 3.5,19.784C3.5,19.784 3.5,18.784 4.5,22.784C5.5,26.784 4.62,19.562 5.06,19.673C5.5,19.784 5.5,15.784 6.5,14.784C7.5,13.784 6.5,18.784 6.5,18.784L9.5,11.784L7.5,17.784L10.5,7.784L10.5,12.089L12.5,6.784L12.5,9.537C12.5,8.784 15.5,5.784 14.5,6.784C13.5,7.784 13.5,9.784 13.5,8.784C13.5,7.784 16.5,2.784 16.5,2.784C16.5,2.784 19.183,0.784 17.842,2.784C16.5,4.784 15.5,5.784 16.5,4.784C17.5,3.784 19.315,0.121 19.408,1.453C19.5,2.784 18.5,6.784 18.5,5.784C18.5,4.784 21.5,0.784 21.5,0.784C21.5,0.784 19.5,6.784 20.5,4.784C21.5,2.784 25.38,0.784 25.94,0.784C26.5,0.784 25.5,1.784 25.5,2.784C25.5,3.784 29.09,0 29.295,0.392C29.5,0.784 27.5,1.784 26.5,3.784C25.5,5.784 18.5,8.784 21.5,6.784C24.5,4.784 16.5,11.784 15.5,13.784C14.5,15.784 16.5,9.784 17.5,8.784C18.5,7.784 14.378,12.596 13.438,17.19C12.5,21.784 13.5,10.784 13.5,10.784C13.5,10.784 9.5,16.784 9.5,19.784C9.5,22.784 5.5,22.784 5.5,27.784C5.5,32.784 3.5,13.784 4.5,24.784C5.448,35.215 2.8,24.964 3.376,30.697C3.407,31.01 3.448,31.37 3.5,31.784C4.5,39.784 2.5,40.784 2.5,38.784C2.5,36.784 1.5,45.784 0.5,48.784C-0.5,51.784 0.5,37.784 0.5,37.784L-0.5,53.784L0.5,57.784L-1.5,53.784L0.5,64.784L-1.5,59.784L-0.5,67.784C-0.5,67.784 -2.5,60.784 -2.5,61.784C-2.5,62.784 -0.5,71.784 -0.5,71.784L-2.5,67.784C-2.5,67.784 -1.5,80.784 -2.5,77.784C-3.5,74.784 -3.5,86.784 -2.5,86.784C-1.5,86.784 0.385,90.76 0.385,90.76L0,94.284Z" style="fill-rule:nonzero;stroke:black;stroke-width:3.55px;"/>
    </g>
    <g transform="matrix(-0.211488,0,0,0.211488,79.2542,31.08)">
        <path d="M0,-92.959C0,-92.959 -3,-87.959 -1,-88.959C1,-89.959 4.5,-94.459 3.5,-90.459C2.5,-86.459 0.5,-87.459 4.5,-88.459C8.5,-89.459 12.5,-95.459 10.5,-91.459C8.5,-87.459 1.5,-87.459 7.5,-88.459C13.5,-89.459 15.5,-92.459 14.5,-89.459C13.5,-86.459 7.5,-86.459 12.5,-87.459C17.5,-88.459 20.5,-90.459 18.5,-88.459C16.5,-86.459 9.5,-85.459 16.5,-86.459C23.5,-87.459 25.5,-89.459 24.5,-87.459C23.5,-85.459 22.5,-83.459 26.5,-84.459C30.5,-85.459 30.5,-83.459 28.5,-82.459C26.5,-81.459 35.5,-84.459 32.5,-81.459C29.5,-78.459 22.5,-77.459 29.5,-78.459L36.5,-79.459C36.5,-79.459 42.5,-84.459 41.5,-81.459C40.5,-78.459 39.5,-76.459 44.5,-78.459C49.5,-80.459 50.5,-82.459 48.5,-79.459C46.5,-76.459 44.5,-76.459 49.5,-77.459C54.5,-78.459 54.5,-77.459 52.5,-76.459C50.5,-75.459 46.5,-74.459 46.5,-74.459L59.5,-76.459C59.5,-76.459 44.5,-73.459 54.5,-73.459C64.5,-73.459 65.5,-76.459 65.5,-76.459L58.5,-71.459L64.5,-74.459C64.5,-74.459 69.5,-77.459 66.5,-73.459L63.5,-69.459L70.5,-73.459L68.5,-70.459C68.5,-70.459 78.5,-74.459 79.5,-75.459L78.5,-74.459L74.5,-71.459C74.5,-71.459 81.5,-72.459 82.5,-73.459L81.5,-72.459L78.5,-70.459L86.5,-73.459L86.5,-70.459C86.5,-69.459 92.5,-73.459 92.5,-73.459C92.5,-73.459 96.5,-70.459 94.5,-68.459C92.5,-66.459 98.5,-68.459 99.5,-68.459C100.5,-68.459 101.5,-68.459 99.5,-66.459C97.5,-64.459 97.5,-65.459 97.5,-65.459L97.5,-64.459C97.5,-64.459 102.5,-66.459 103.5,-67.459C104.5,-68.459 101.5,-61.459 101.5,-61.459C101.5,-61.459 107.5,-67.459 107.5,-65.459C107.5,-63.459 104.5,-60.459 104.5,-60.459C104.5,-60.459 109.5,-62.459 109.5,-63.459C109.5,-64.459 113.5,-52.459 111.5,-50.459C109.5,-48.459 107.5,-45.459 110.5,-47.459C113.5,-49.459 113.5,-48.459 113.5,-45.459C113.5,-42.459 109.5,-38.459 111.5,-39.459L113.5,-40.459C113.5,-40.459 110.5,-35.459 111.5,-33.459L112.5,-31.459C112.5,-31.459 113.5,-37.459 114.5,-36.459C115.5,-35.459 112.806,-28.974 111.5,-27.459C108.653,-24.155 111.763,-8.205 115.5,-9.459C116.448,-9.777 119.5,-7.459 119.5,-5.459C119.5,-3.459 117.5,-0.459 117.5,0.541C117.5,1.541 118.141,2.5 118.141,2.5C118.141,2.5 120.886,-4.013 121.192,-6.236C121.5,-8.459 117.747,-12.258 117.123,-13.858C116.5,-15.459 113.896,-25.23 114.698,-29.844C115.5,-34.459 116.608,-43.75 115.554,-50.104C114.5,-56.459 115.542,-57.744 114.521,-60.601C113.5,-63.459 100.825,-80.548 95.162,-79.503C89.5,-78.459 78.5,-76.459 78.5,-76.459C78.5,-76.459 87.31,-81.667 89.904,-82.063C92.5,-82.459 81.543,-82.431 80.521,-80.445C79.5,-78.459 74.891,-73.747 75.195,-75.603C75.5,-77.459 77.5,-80.459 76.5,-81.459C75.5,-82.459 73.4,-82.419 73.45,-81.439C73.5,-80.459 70.992,-75.381 70.246,-75.92C69.5,-76.459 70.229,-80.738 70.229,-80.738C70.229,-80.738 63.081,-79.612 59.291,-80.536C55.5,-81.459 52.543,-80.779 52.543,-80.779C52.543,-80.779 52.643,-82.114 52.571,-83.287C52.5,-84.459 49.962,-81.358 48.23,-82.409C46.5,-83.459 43.01,-87.355 41.755,-86.907C40.5,-86.459 39.146,-85.313 36.822,-83.886C34.5,-82.459 37.762,-91.224 37.762,-91.224L34.006,-83.599C34.006,-83.599 33.193,-84.13 33.347,-83.794C33.5,-83.459 31.953,-87.201 32.227,-86.33C32.5,-85.459 32.018,-83.869 30.759,-85.164C29.5,-86.459 29.598,-89.1 28.549,-89.279C27.5,-89.459 23.7,-90.459 22.6,-89.959C21.5,-89.459 16.933,-89.828 13.716,-91.644C10.5,-93.459 9.119,-94.459 8.31,-92.959C7.5,-91.459 6.238,-90.763 4.869,-90.611C3.5,-90.459 1.782,-93.437 1.641,-93.448C1.5,-93.459 1.078,-92.717 0.289,-94.088C-0.5,-95.459 0.125,-95.191 -1.687,-92.825C-3.5,-90.459 -7.121,-88.131 -8.311,-86.795C-9.5,-85.459 -13.745,-80.601 -14.623,-79.03C-15.5,-77.459 -15.737,-72.49 -17.119,-70.975C-18.5,-69.459 -18.064,-68.953 -19.282,-67.706C-20.5,-66.459 -21.622,-65.4 -20.562,-64.429C-19.5,-63.459 -16.5,-60.459 -16.5,-58.459C-16.5,-56.459 -18.5,-39.459 -19.5,-36.459C-20.5,-33.459 -24.175,-24.508 -24.838,-23.483C-25.5,-22.459 -28.261,-18.909 -28.88,-17.184C-29.5,-15.459 -29.745,-11.166 -29.623,-9.313C-29.5,-7.459 -29.5,-9.459 -27.5,-12.459C-25.5,-15.459 -27.5,-15.459 -27.5,-15.459C-27.5,-15.459 -25.5,-20.459 -22.5,-22.459L-19.5,-24.459L-22.5,-23.459C-22.5,-23.459 -18.5,-30.459 -17.5,-31.459C-16.5,-32.459 -18.5,-31.459 -19.5,-30.459C-20.5,-29.459 -18.5,-37.459 -16.5,-37.459L-14.5,-37.459C-14.5,-37.459 -19.5,-40.459 -17.5,-41.459C-15.5,-42.459 -16.5,-57.459 -14.5,-58.459L-12.5,-59.459C-12.5,-59.459 -17.5,-58.459 -16.5,-62.459L-15.5,-66.459C-15.5,-66.459 -16.5,-69.459 -17.5,-67.459C-18.5,-65.459 -13.5,-71.459 -12.5,-74.459L-11.5,-77.459C-11.5,-77.459 -11.5,-81.459 -9.5,-82.459C-7.5,-83.459 -4.5,-85.459 -3.5,-87.459C-2.5,-89.459 0,-92.959 0,-92.959" style="fill-rule:nonzero;"/>
    </g>
    <g transform="matrix(-0.211488,0,0,0.211488,72.6981,39.9712)">
        <path d="M0,2C0,2 -9,1 -8,-2C-7,-5 -4,-3 -1,0C2,3 7,6 9,6C11,6 14,6 16,5C18,4 22,1 23,1C24,1 28,-1 28,1C28,3 21,5 19,5C17,5 11,7 10,7C9,7 0,2 0,2Z" style="fill-rule:nonzero;stroke:black;stroke-width:1.18px;"/>
    </g>
    <g transform="matrix(-0.211488,0,0,0.211488,74.39,36.7989)">
        <path d="M0,13C0,13 -6,9 -3,5C0,1 5,0 8,1" style="fill:none;fill-rule:nonzero;stroke:black;stroke-width:2.36px;"/>
    </g>
    <g transform="matrix(-0.211488,0,0,0.211488,66.7764,40.6056)">
        <path d="M0,-19C0,-19 6,-19 6,-11C6,-5.901 0,0 0,-1" style="fill:none;fill-rule:nonzero;stroke:black;stroke-width:2.36px;"/>
    </g>
    <g transform="matrix(-0.211488,0,0,0.211488,79.6772,49.0652)">
        <path d="M0,-23C0,-23 14,-29 17,-29C20,-29 28,-28 33,-26C38,-24 46,-25 51,-26C56,-27 64,-23 72,-21L80,-19C80,-19 67,-4 59,0C51,4 44,6 36,5C28,4 24,1 18,-4C12,-9 3,-23 0,-23" style="fill:rgb(229,153,153);fill-rule:nonzero;"/>
    </g>
    <g transform="matrix(-0.211488,0,0,0.211488,288.521,-10.6801)">
        <clipPath id="_clip5">
            <path d="M987.5,259.5C990.5,259.5 999.5,273.5 1005.5,278.5C1011.5,283.5 1015.5,286.5 1023.5,287.5C1031.5,288.5 1038.5,286.5 1046.5,282.5C1054.5,278.5 1067.5,263.5 1067.5,263.5L1059.5,261.5C1051.5,259.5 1043.5,255.5 1038.5,256.5C1033.5,257.5 1025.5,258.5 1020.5,256.5C1015.5,254.5 1007.5,253.5 1004.5,253.5C1001.5,253.5 987.5,259.5 987.5,259.5Z" clip-rule="nonzero"/>
        </clipPath>
        <g clip-path="url(#_clip5)">
            <g transform="matrix(1,0,0,1,993.5,290.484)">
                <path d="M0,-21.984C0,-21.984 7.5,-20.484 7.5,-19.484C7.5,-18.484 8.5,-16.484 10.5,-16.484C12.5,-16.484 12.5,-16.484 12.5,-15.484C12.5,-14.484 13.5,-11.484 14.5,-12.484C15.5,-13.484 16.5,-14.484 16.5,-12.484C16.5,-10.484 16.5,-9.484 17.5,-10.484C18.5,-11.484 19.5,-8.484 19.5,-8.484L20.5,-10.484C20.5,-10.484 21.5,-9.484 21.5,-8.484C21.5,-7.484 23.5,-4.484 24.5,-6.484C25.5,-8.484 26.5,-7.484 26.5,-6.484C26.5,-5.484 30.5,-8.484 30.5,-8.484L30.5,-6.484C30.5,-6.484 32.5,-7.484 32.5,-8.484C32.5,-9.484 33.5,-8.484 33.5,-7.484C33.5,-6.484 35.5,-4.484 35.5,-6.484C35.5,-8.484 34.5,-8.484 36.5,-7.484C38.5,-6.484 42.5,-5.484 42.5,-6.484L42.5,-9.484L44.5,-7.484L45.5,-11.484C45.5,-11.484 46.5,-8.484 47.5,-8.484C48.5,-8.484 49.5,-11.484 49.5,-11.484C49.5,-11.484 50.5,-10.484 51.5,-10.484C52.5,-10.484 55.5,-11.484 55.5,-12.484L55.5,-13.484C55.5,-13.484 58.5,-11.484 58.5,-12.484C58.5,-13.484 58.5,-16.484 59.5,-16.484C60.5,-16.484 61.5,-14.484 62.5,-16.484C63.5,-18.484 68.5,-22.484 67.5,-21.484C66.5,-20.484 70.85,-23.5 70.85,-23.5C70.85,-23.5 73.5,-15.484 68.5,-12.484C63.5,-9.484 50.5,-0.484 44.5,0.516C38.5,1.516 9.5,-2.484 8.5,-5.484C7.5,-8.484 0,-21.984 0,-21.984" style="fill:rgb(255,207,255);fill-rule:nonzero;"/>
            </g>
            <g transform="matrix(1,0,0,1,988,261)">
                <path d="M0,-8C0,-8 3,-2 6,-3C9,-4 14,-6 16,-6C18,-6 22,-6 25,-5C28,-4 30,-4 34,-3C38,-2 44,-1 46,-2C48,-3 52,-3 55,-3C58,-3 65,-1 67,0C69,1 75,2 75,2C75,2 78,0 75,-1C72,-2 54,-6 49,-6C44,-6 48,-6 30,-8C12,-10 0,-8 0,-8" style="fill:rgb(255,207,255);fill-rule:nonzero;"/>
            </g>
        </g>
    </g>
    <g transform="matrix(-0.211488,0,0,0.211488,79.6772,49.0652)">
        <path d="M0,-23C0,-23 14,-29 17,-29C20,-29 28,-28 33,-26C38,-24 46,-25 51,-26C56,-27 64,-23 72,-21L80,-19C80,-19 67,-4 59,0C51,4 44,6 36,5C28,4 24,1 18,-4C12,-9 3,-23 0,-23Z" style="fill:none;fill-rule:nonzero;stroke:black;stroke-width:1.31px;"/>
    </g>
    <g transform="matrix(-0.211488,0,0,0.211488,78.1249,47.7244)">
        <path d="M0,-15C0,-15 9,-19 22,-15C35,-11 37,-16 47,-15C57,-14 62,-13 67,-12C72,-11 65,-8 51,-2C37,4 23,3 14,-2C5,-7 1,-10 -1,-12C-3,-14 0,-15 0,-15" style="fill:rgb(191,0,0);fill-rule:nonzero;"/>
    </g>
    <g transform="matrix(-0.211488,0,0,0.211488,288.521,-10.6801)">
        <clipPath id="_clip6">
            <path d="M994.84,261.16C994.84,261.16 991.84,262.16 993.839,264.16C995.84,266.161 999.84,269.16 1008.84,274.16C1017.84,279.16 1031.84,280.16 1045.84,274.16C1059.84,268.16 1066.84,265.16 1061.84,264.16C1056.84,263.16 1051.84,262.16 1041.84,261.16C1037.84,260.761 1035.12,261.32 1032.46,261.88C1028.48,262.72 1024.64,263.56 1016.84,261.16C1012.51,259.827 1008.62,259.383 1005.36,259.383C998.841,259.383 994.84,261.16 994.84,261.16Z" clip-rule="nonzero"/>
        </clipPath>
        <g clip-path="url(#_clip6)">
            <g transform="matrix(1,0,0,1,1048,223.5)">
                <path d="M0,47L-36,47C-48.925,47 -59.5,36.425 -59.5,23.5C-59.5,10.575 -48.925,0 -36,0L0,0C12.925,0 23.5,10.575 23.5,23.5C23.5,36.425 12.925,47 0,47Z" style="fill:white;fill-rule:nonzero;stroke:black;stroke-width:2.36px;"/>
            </g>
        </g>
    </g>
    <g transform="matrix(-0.211488,0,0,0.211488,78.1249,47.7244)">
        <path d="M0,-15C0,-15 9,-19 22,-15C35,-11 37,-16 47,-15C57,-14 62,-13 67,-12C72,-11 65,-8 51,-2C37,4 23,3 14,-2C5,-7 1,-10 -1,-12C-3,-14 0,-15 0,-15Z" style="fill:none;fill-rule:nonzero;stroke:black;stroke-width:2.36px;"/>
    </g>
    <g transform="matrix(-0.211488,0,0,0.211488,73.0258,140.432)">
        <path d="M0,-149C0,-149 18,-138 34,-129C50,-120 72,-110 79,-104C86,-98 114,-79 132,-72C150,-65 156,-57 186,-53C216,-49 241,-40 251,-29C261,-18 284,7 284,18C284,29 280,51 279,55C278,59 273,67 265,73C257,79 250,86 246,88C242,90 235,91 228,86C221,81 222,78 193,68C164,58 148,48 135,40C122,32 94,6 81,-2C68,-10 54,-23 46,-32C38,-41 16,-60 8,-59C0,-58 -16,-57 -23,-59C-30,-61 -51,-71 -52,-73C-53,-75 -58,-74 -61,-78C-64,-82 -68,-81 -71,-85C-74,-89 -78,-93 -77,-97C-76,-101 -77,-106 -73,-107C-69,-108 -72,-112 -74,-114C-76,-116 -77,-120 -74,-124C-71,-128 -68,-130 -67,-131C-66,-132 -69,-135 -72,-135C-75,-135 -82,-134 -85,-140C-88,-146 -89,-150 -85,-155C-81,-160 -76,-163 -71,-162C-66,-161 -64,-162 -67,-166C-70,-170 -94,-193 -104,-201C-114,-209 -129,-220 -130,-221C-131,-222 -133,-230 -130,-233C-127,-236 -124,-240 -119,-237C-114,-234 -95,-221 -90,-218C-85,-215 -71,-205 -62,-197C-53,-189 -28,-177 -28,-177C-28,-177 -13,-170 -7,-161C-1,-152 0,-149 0,-149" style="fill:rgb(245,215,204);fill-rule:nonzero;"/>
    </g>
    <g transform="matrix(-0.211488,0,0,0.211488,288.521,-10.6801)">
        <clipPath id="_clip7">
            <path d="M888.95,481.52C885.95,484.52 887.95,492.52 888.95,493.52C889.951,494.52 904.95,505.52 914.95,513.52C924.95,521.52 948.95,544.52 951.95,548.519C954.95,552.52 952.951,553.52 947.95,552.52C942.95,551.519 937.95,554.52 933.95,559.519C929.95,564.52 930.95,568.519 933.95,574.52C936.95,580.52 943.951,579.52 946.95,579.52C949.95,579.52 952.951,582.52 951.95,583.52C950.95,584.519 947.95,586.519 944.951,590.52C941.95,594.519 942.95,598.52 944.951,600.52C946.95,602.519 949.95,606.52 945.95,607.52C941.95,608.52 942.95,613.519 941.95,617.52C940.95,621.519 944.951,625.52 947.95,629.519C950.95,633.52 954.95,632.519 957.95,636.52C960.95,640.519 965.95,639.519 966.95,641.519C967.95,643.52 988.951,653.52 995.95,655.52C1002.95,657.519 1018.95,656.519 1026.95,655.52C1034.95,654.52 1056.95,673.52 1064.95,682.52C1072.95,691.52 1086.95,704.519 1099.95,712.519C1112.95,720.519 1140.95,746.519 1153.95,754.52C1166.95,762.52 1182.95,772.52 1211.95,782.519C1240.95,792.519 1239.95,795.52 1246.95,800.519C1253.95,805.52 1260.95,804.52 1264.95,802.519C1268.95,800.519 1275.95,793.519 1283.95,787.52C1291.95,781.52 1296.95,773.519 1297.95,769.52C1298.95,765.519 1302.95,743.52 1302.95,732.52C1302.95,721.519 1279.95,696.52 1269.95,685.519C1259.95,674.519 1234.95,665.519 1204.95,661.52C1174.95,657.519 1168.95,649.519 1150.95,642.52C1132.95,635.52 1104.95,616.52 1097.95,610.52C1090.95,604.519 1068.95,594.519 1052.95,585.519C1036.95,576.519 1018.95,565.52 1018.95,565.52C1018.95,565.52 1017.95,562.52 1011.95,553.52C1005.95,544.52 990.95,537.52 990.95,537.52C990.95,537.52 965.95,525.52 956.95,517.52C947.95,509.52 933.95,499.52 928.95,496.52C923.95,493.52 904.95,480.52 899.951,477.52C898.7,476.77 897.575,476.457 896.544,476.457C893.45,476.458 891.2,479.27 888.95,481.52Z" clip-rule="nonzero"/>
        </clipPath>
        <g clip-path="url(#_clip7)">
            <g transform="matrix(1,0,0,1,1046.5,736.5)">
                <path d="M0,-143C0,-143 -5,-116 17,-105C39,-94 88,-100 116,-57C144,-14 150,-13 183,-8C216,-3 213,21 203,28C193,35 154,38 183,67C212,96 323,96 301,58C279,20 297.346,0.045 263.173,-30.478C229,-61 157,-99 95,-131C33,-163 -24,-194 -48,-197C-72,-200 -87,-239 -94,-232C-101,-225 -91,-213 -72,-200C-53,-187 -15,-160 -12,-150C-9,-140 0,-143 0,-143" style="fill:rgb(226,179,161);fill-rule:nonzero;"/>
            </g>
            <g transform="matrix(1,0,0,1,945,761)">
                <path d="M0,-139C0,-139 50,-121 62,-121C74,-121 87,-109 91,-115C95,-121 90,-135 95,-137C100,-139 86,-134 115,-109C144,-84 186,-71 206,-43C226,-15 259.785,4.341 228.893,5.17C198,6 157,-7 138,-32C119,-57 105,-93 79,-95C53,-97 39,-96 18,-109C-3,-122 -5,-133 -7,-139C-9,-145 0,-139 0,-139" style="fill:rgb(226,179,161);fill-rule:nonzero;"/>
            </g>
            <g transform="matrix(1,0,0,1,967.5,606.5)">
                <path d="M0,-57C1,-56 24,-44 31,-35C38,-26 61,3 70,2C79,1 60,-15 51,-27C42,-39 14,-60 10,-60C6,-60 0,-57 0,-57" style="fill:rgb(226,179,161);fill-rule:nonzero;"/>
            </g>
            <g transform="matrix(1,0,0,1,967.243,601.917)">
                <path d="M0,-27.834C0,-27.834 35.757,-7.917 39.757,-1.917C43.757,4.083 43.757,3.083 43.757,3.083C43.757,3.083 16.757,-1.917 6.757,-7.917C-3.243,-13.917 -12.243,-15.917 -12.243,-15.917C-12.243,-15.917 -29.243,-31.917 -21.243,-29.917C-13.243,-27.917 0,-27.834 0,-27.834" style="fill:rgb(226,179,161);fill-rule:nonzero;"/>
            </g>
            <g transform="matrix(1,0,0,1,953,629)">
                <path d="M0,-29C0,-29 26,-9 39,-10C52,-11 52,-13 52,-13C52,-13 54,-4 48,-2C42,0 14.037,-7.529 7.019,-12.765C0,-18 0,-29 0,-29" style="fill:rgb(226,179,161);fill-rule:nonzero;"/>
            </g>
            <g transform="matrix(-0.838444,0.544988,0.544988,0.838444,959.047,513.279)">
                <path d="M16.237,-22.813C16.237,-22.813 18.543,-30.276 23.112,-17.741C27.682,-5.206 21.226,1.376 16.237,1.04C11.248,0.705 -3.718,-0.301 0.558,-10.237C4.834,-20.172 16.237,-22.813 16.237,-22.813" style="fill:rgb(226,179,161);fill-rule:nonzero;"/>
            </g>
            <g transform="matrix(1,0,0,1,907,487)">
                <path d="M0,25C0,25 5,23 9,18C13,13 14,8 12,6C10,4 6,0 2,4C-2,8 -12,16 -10,20C-8,24 0,25 0,25" style="fill:rgb(226,179,161);fill-rule:nonzero;"/>
            </g>
        </g>
    </g>
    <g transform="matrix(-0.211488,0,0,0.211488,73.0258,140.432)">
        <path d="M0,-149C0,-149 18,-138 34,-129C50,-120 72,-110 79,-104C86,-98 114,-79 132,-72C150,-65 156,-57 186,-53C216,-49 241,-40 251,-29C261,-18 284,7 284,18C284,29 280,51 279,55C278,59 273,67 265,73C257,79 250,86 246,88C242,90 235,91 228,86C221,81 222,78 193,68C164,58 148,48 135,40C122,32 94,6 81,-2C68,-10 54,-23 46,-32C38,-41 16,-60 8,-59C0,-58 -16,-57 -23,-59C-30,-61 -51,-71 -52,-73C-53,-75 -58,-74 -61,-78C-64,-82 -68,-81 -71,-85C-74,-89 -78,-93 -77,-97C-76,-101 -77,-106 -73,-107C-69,-108 -72,-112 -74,-114C-76,-116 -77,-120 -74,-124C-71,-128 -68,-130 -67,-131C-66,-132 -69,-135 -72,-135C-75,-135 -82,-134 -85,-140C-88,-146 -89,-150 -85,-155C-81,-160 -76,-163 -71,-162C-66,-161 -64,-162 -67,-166C-70,-170 -94,-193 -104,-201C-114,-209 -129,-220 -130,-221C-131,-222 -133,-230 -130,-233C-127,-236 -124,-240 -119,-237C-114,-234 -95,-221 -90,-218C-85,-215 -71,-205 -62,-197C-53,-189 -28,-177 -28,-177C-28,-177 -13,-170 -7,-161C-1,-152 0,-149 0,-149Z" style="fill:none;fill-rule:nonzero;"/>
    </g>
    <g transform="matrix(-0.211488,0,0,0.211488,88.3482,114.667)">
        <path d="M0,-12.556C0,-12.556 -6,-9.556 -5,-6.556C-4,-3.556 -2.856,1 -2.856,1L6,-10.556L4.324,-13.445L0,-13.556L0,-12.556Z" style="fill:rgb(226,179,161);fill-rule:nonzero;"/>
    </g>
    <g transform="matrix(-0.211488,0,0,0.211488,132.44,103.193)">
        <path d="M0,102C0,102 -9,95 -20,87C-31,79 -39,77 -47,71C-55,65 -64,52 -77,35C-90,18 -98,6 -104,1C-110,-4 -128,-27 -141,-37C-154,-47 -159,-53 -161,-56C-163,-59 -195,-75 -208,-89C-221,-103 -256,-126 -260,-125C-264,-124 -269,-125 -270,-120C-271,-115 -272,-113 -265,-107C-258,-101 -243,-91 -238,-85C-233,-79 -218,-69 -215,-66C-212,-63 -225,-70 -229,-68C-233,-66 -241,-64 -237,-54C-233,-44 -231,-47 -230,-41C-229,-35 -232,-27 -230,-24C-228,-21 -230,-20 -226,-17C-222.713,-14.536 -212,-16.796 -204.4,-15.462C-202.751,-15.173 -201.248,-14.714 -200,-14C-193,-10 -183,-8 -182,-5C-181,-2 -197,-14 -206,-14C-215,-14 -228,-16 -229,-13C-230,-10 -234,-3 -230,1C-226,5 -227,10 -224,12C-221,14 -209,24 -209,26C-209,28 -195,33 -193,36C-191,39 -180,46 -174,47C-168,48 -158,46 -154,52C-150,58 -138,71 -135,77C-132,83 -120,105 -117,108C-114,111 -102,130 -93,141C-84,152 -65,178 -46,192C-27,206 -12,221 -10,223C-8,225 -1,228 10,225C21,222 35,215 41,209L47,203C47,203 43,197 35,181C27,165 20,142 15,128C10,114 0,102 0,102" style="fill:rgb(245,215,204);fill-rule:nonzero;"/>
    </g>
    <g transform="matrix(-0.211488,0,0,0.211488,288.521,-10.6801)">
        <clipPath id="_clip8">
            <path d="M478.018,413.44C474.018,414.44 469.018,413.44 468.018,418.44C467.018,423.44 466.018,425.44 473.018,431.44C480.018,437.44 495.018,447.44 500.018,453.44C505.018,459.44 520.018,469.44 523.018,472.44C524.596,474.019 521.743,472.828 518.103,471.637C514.826,470.565 510.912,469.493 509.018,470.44C505.018,472.44 497.018,474.44 501.018,484.44C505.018,494.44 507.018,491.44 508.018,497.44C509.018,503.44 506.018,511.44 508.018,514.44C510.018,517.44 508.018,518.44 512.018,521.44C513.885,522.84 518.147,522.716 522.874,522.591C526.469,522.497 530.334,522.402 533.618,522.978C535.267,523.267 536.77,523.726 538.018,524.44C545.018,528.44 555.018,530.44 556.018,533.44C557.018,536.44 541.018,524.44 532.018,524.44C523.018,524.44 510.018,522.44 509.018,525.44C508.018,528.44 504.018,535.44 508.018,539.44C512.018,543.441 511.018,548.44 514.018,550.44C517.018,552.441 529.018,562.441 529.018,564.44C529.018,566.44 543.018,571.441 545.018,574.44C547.018,577.44 558.018,584.44 564.018,585.44C570.018,586.44 580.018,584.44 584.018,590.44C588.018,596.441 600.018,609.44 603.018,615.441C606.018,621.44 618.018,643.441 621.018,646.44C624.018,649.44 636.018,668.441 645.018,679.441C654.018,690.44 673.018,716.441 692.018,730.44C711.018,744.44 726.018,759.441 728.018,761.441C730.018,763.44 737.018,766.44 748.018,763.44C759.018,760.441 773.018,753.44 779.018,747.44L785.018,741.441C785.018,741.441 781.018,735.44 773.018,719.44C765.018,703.44 758.018,680.44 753.018,666.44C748.018,652.441 738.018,640.44 738.018,640.44C738.018,640.44 729.018,633.441 718.018,625.441C707.018,617.44 699.018,615.441 691.018,609.44C683.018,603.44 674.018,590.44 661.018,573.44C648.018,556.44 640.018,544.441 634.018,539.44C628.018,534.44 610.018,511.44 597.018,501.44C584.018,491.44 579.018,485.44 577.018,482.44C575.018,479.44 543.018,463.44 530.018,449.44C517.294,435.736 483.49,413.411 478.313,413.409C478.201,413.409 478.103,413.419 478.018,413.44Z" clip-rule="nonzero"/>
        </clipPath>
        <g clip-path="url(#_clip8)">
            <g transform="matrix(1,0,0,1,618.351,605.846)">
                <path d="M0,-59.47C0,-59.47 7.649,-22.846 19.649,-17.846C31.649,-12.846 64.649,0.154 71.649,21.154C78.649,42.154 94.649,60.154 112.649,62.154C130.649,64.154 144.649,76.376 146.149,63.765C147.649,51.154 129.649,13.154 109.649,3.154C89.649,-6.846 69.649,-10.846 58.649,-32.846C47.649,-54.846 18.649,-91.846 7.649,-91.846C-3.351,-91.846 -33.351,-135.846 -38.351,-132.846C-43.351,-129.846 -52.351,-120.846 -38.351,-109.846C-24.351,-98.846 -21.351,-84.846 -19.351,-72.846C-17.351,-60.846 0,-59.47 0,-59.47" style="fill:rgb(226,179,161);fill-rule:nonzero;"/>
            </g>
            <g transform="matrix(1,0,0,1,725,754)">
                <path d="M0,-90C0,-90 30,-59 24,-40C18,-21 -5,-20 -19,-22C-33,-24 -40,-26 -23,-10C-6,6 -24,12 0,13C24,14 55,13 54,1C53,-11 76.96,-2.4 66.48,-19.2C56,-36 60.804,-37.919 46.402,-60.46C32,-83 17,-104 11,-102C5,-100 0,-90 0,-90" style="fill:rgb(226,179,161);fill-rule:nonzero;"/>
            </g>
            <g transform="matrix(1,0,0,1,530.478,510.038)">
                <path d="M0,-1.076C0,-1.076 12.522,-2.038 19.522,4.962C26.522,11.962 32.522,13.962 43.522,7.962C54.522,1.962 53.698,-3.61 53.698,-3.61C53.698,-3.61 21.522,-15.038 13.522,-10.038C5.522,-5.038 0,-1.076 0,-1.076" style="fill:rgb(226,179,161);fill-rule:nonzero;"/>
            </g>
            <g transform="matrix(1,0,0,1,584,553)">
                <path d="M0,28C0,28 -16,23 -23,7C-30,-9 -44,-13 -50,-10C-56,-7 -67.986,-8.985 -67.993,-8.993C-68,-9 -91,-13 -77,0C-63,13 -54,29 -32,35C-10,41 0,28 0,28" style="fill:rgb(226,179,161);fill-rule:nonzero;"/>
            </g>
            <g transform="matrix(1,0,0,1,481.466,414.087)">
                <path d="M0,31.281C19.933,23.124 24.408,4.799 21.527,2.4C18.647,0 -14.212,13.122 -9.167,21.549C-4.121,29.976 0,31.281 0,31.281" style="fill:rgb(226,179,161);fill-rule:nonzero;"/>
            </g>
            <g transform="matrix(-0.923222,-0.384267,-0.384267,0.923222,491.609,460.502)">
                <path d="M-5.34,-33.382C-4.648,-32.974 -4.317,-32.214 -4.43,-31.314C-6.278,-16.532 8.17,-1.729 -5.34,-2.565C-19.263,-3.427 -19.368,-32.536 -15.325,-35.089C-12.273,-37.015 -7.499,-34.655 -5.34,-33.382" style="fill:rgb(226,179,161);fill-rule:nonzero;"/>
            </g>
            <g transform="matrix(0.0212718,0.999774,0.999774,-0.0212718,575.498,501.771)">
                <path d="M12.003,-34.261C24.276,-21.519 35.572,-7.756 27.765,1.412C19.958,10.58 12.003,12.75 12.003,12.75C12.003,12.75 15.229,-15.434 14.201,-20.859C13.173,-26.284 12.003,-34.261 12.003,-34.261" style="fill:rgb(254,248,245);fill-rule:nonzero;"/>
            </g>
        </g>
    </g>
    <g transform="matrix(-0.211488,0,0,0.211488,132.44,103.193)">
        <path d="M0,102C0,102 -9,95 -20,87C-31,79 -39,77 -47,71C-55,65 -64,52 -77,35C-90,18 -98,6 -104,1C-110,-4 -128,-27 -141,-37C-154,-47 -159,-53 -161,-56C-163,-59 -195,-75 -208,-89C-221,-103 -256,-126 -260,-125C-264,-124 -269,-125 -270,-120C-271,-115 -272,-113 -265,-107C-258,-101 -243,-91 -238,-85C-233,-79 -218,-69 -215,-66C-212,-63 -225,-70 -229,-68C-233,-66 -241,-64 -237,-54C-233,-44 -231,-47 -230,-41C-229,-35 -232,-27 -230,-24C-228,-21 -230,-20 -226,-17C-222.713,-14.536 -212,-16.796 -204.4,-15.462C-202.751,-15.173 -201.248,-14.714 -200,-14C-193,-10 -183,-8 -182,-5C-181,-2 -197,-14 -206,-14C-215,-14 -228,-16 -229,-13C-230,-10 -234,-3 -230,1C-226,5 -227,10 -224,12C-221,14 -209,24 -209,26C-209,28 -195,33 -193,36C-191,39 -180,46 -174,47C-168,48 -158,46 -154,52C-150,58 -138,71 -135,77C-132,83 -120,105 -117,108C-114,111 -102,130 -93,141C-84,152 -65,178 -46,192C-27,206 -12,221 -10,223C-8,225 -1,228 10,225C21,222 35,215 41,209L47,203C47,203 43,197 35,181C27,165 20,142 15,128C10,114 0,102 0,102Z" style="fill:none;fill-rule:nonzero;"/>
    </g>
    <g transform="matrix(-0.211488,0,0,0.211488,160.922,90.3984)">
        <path d="M0,79C0,79 -9,81 -19,75C-29,69 -44,54 -45,46C-46,38 -44,29 -52,27C-60,25 -64,24 -67,27C-70,30 -79,35 -83,33C-87,31 -101,25 -94,20C-87,15 -72,0 -68,-1C-64,-2 -57,4 -45,5C-33,6 -29.106,3.747 -23.053,9.874C-17,16 15.851,47.233 17.925,49.116C20,51 17,67 13,72C9,77 0,79 0,79Z" style="fill:none;fill-rule:nonzero;stroke:black;stroke-width:1.31px;"/>
    </g>
    <g transform="matrix(-0.149183,-0.149905,0.149905,-0.149183,174.462,97.0213)">
        <path d="M-1.337,3.218C-1.337,3.218 3.495,1.814 7.741,3.218" style="fill:none;fill-rule:nonzero;stroke:black;stroke-width:3.55px;"/>
    </g>
    <g transform="matrix(-0.211488,0,0,0.211488,179.456,94.6285)">
        <path d="M0,12.644C6.196,14.429 13.34,14.938 19.156,11.663C23.921,8.978 27.453,3.791 26.977,-1.812C26.937,-2.29 26.186,-2.294 26.227,-1.812C26.692,3.666 23.172,8.677 18.458,11.19C12.863,14.172 6.09,13.617 0.199,11.921C-0.266,11.787 -0.464,12.511 0,12.644" style="fill-rule:nonzero;"/>
    </g>
    <g transform="matrix(-0.211488,0,0,0.211488,174.021,108.599)">
        <path d="M0,-61.526C5.721,-57.397 14.032,-57.27 19.875,-61.223C19.875,-61.223 19.595,-52 30.595,-38C41.595,-24 41.595,-18 55.595,-14C69.595,-10 71.671,-10.286 71.671,-10.286C71.671,-10.286 62.595,0 50.595,-5C38.595,-10 22.595,-16 20.595,-27C18.595,-38 11.595,-51 10.595,-55C9.595,-59 0,-61.526 0,-61.526" style="fill:rgb(226,179,161);fill-rule:nonzero;"/>
    </g>
    <g transform="matrix(-0.00251039,0.211473,-0.211473,-0.00251039,167.665,93.7295)">
        <path d="M12.561,-16.852C17.574,-7.782 17.819,3.47 13.212,12.751C12.998,13.185 12.347,12.813 12.561,12.381C17.045,3.346 16.797,-7.64 11.917,-16.465C11.684,-16.887 12.327,-17.275 12.561,-16.852" style="fill-rule:nonzero;"/>
    </g>
    <g transform="matrix(-0.195973,0.0795079,-0.0795079,-0.195973,176.818,107.775)">
        <path d="M3.33,-0.632C4.554,5.2 4.803,11.199 4.075,17.114C4.015,17.594 3.27,17.506 3.33,17.027C4.051,11.172 3.799,5.248 2.587,-0.525C2.488,-0.999 3.23,-1.103 3.33,-0.632" style="fill-rule:nonzero;"/>
    </g>
    <g transform="matrix(-0.15393,0.145026,-0.145026,-0.15393,178.697,105.484)">
        <path d="M3.442,-1.322C4.761,1.808 5.015,5.343 4.173,8.632C4.054,9.101 3.323,8.933 3.442,8.465C4.255,5.286 3.996,1.913 2.724,-1.11C2.536,-1.554 3.257,-1.763 3.442,-1.322" style="fill-rule:nonzero;"/>
    </g>
    <g transform="matrix(-0.168062,0.128383,-0.128383,-0.168062,178.275,106.036)">
        <path d="M3.534,-1.188C5.589,2.295 5.874,6.676 4.229,10.381C4.034,10.821 3.338,10.541 3.534,10.101C5.065,6.653 4.858,2.521 2.936,-0.735C2.694,-1.145 3.288,-1.605 3.534,-1.188" style="fill-rule:nonzero;"/>
    </g>
    <g transform="matrix(-0.211488,0,0,0.211488,172.309,104.5)">
        <path d="M0,-14.69C1.792,-13.15 3.891,-11.697 5.497,-9.963C6.943,-8.401 5.816,-5.694 4.726,-4.219C1.987,-0.512 -2.842,0.085 -7.061,-0.912C-8.989,-1.367 -10.829,-2.509 -12.78,-2.762C-14.759,-3.019 -16.812,-1.96 -18.716,-1.519C-23.526,-0.408 -28.514,-0.243 -33.394,-0.971C-33.866,-1.042 -34.069,-0.319 -33.593,-0.248C-29.657,0.339 -25.676,0.38 -21.735,-0.193C-19.646,-0.497 -17.601,-0.984 -15.582,-1.595C-14.404,-1.953 -13.325,-2.197 -12.111,-1.845C-11.18,-1.576 -10.3,-1.127 -9.385,-0.81C-6.057,0.342 -2.224,0.843 1.12,-0.53C3.714,-1.595 5.979,-3.812 6.685,-6.578C7.016,-7.874 7.133,-9.361 6.142,-10.381C4.443,-12.129 2.38,-13.631 0.53,-15.22C0.166,-15.533 -0.367,-15.005 0,-14.69" style="fill-rule:nonzero;"/>
    </g>
    <g transform="matrix(-0.168231,0.128162,-0.128162,-0.168231,186.809,81.161)">
        <path d="M3.957,-1.307C5.012,2.95 5.261,7.382 4.702,11.732C4.64,12.211 3.895,12.119 3.957,11.641C4.51,7.349 4.254,2.993 3.214,-1.206C3.097,-1.675 3.842,-1.771 3.957,-1.307" style="fill-rule:nonzero;"/>
    </g>
    <g transform="matrix(-0.194729,0.0825087,-0.0825087,-0.194729,182.548,83.7691)">
        <path d="M1.942,-0.42C1.021,2.812 1.285,6.314 2.636,9.385C2.831,9.827 2.137,10.109 1.942,9.667C0.504,6.401 0.275,2.715 1.251,-0.712C1.383,-1.175 2.072,-0.879 1.942,-0.42" style="fill-rule:nonzero;"/>
    </g>
    <g transform="matrix(-0.151284,0.147784,-0.147784,-0.151284,181.557,84.0548)">
        <path d="M4.123,-1.655C5.044,2.154 5.304,6.103 4.872,9.998C4.82,10.472 4.07,10.486 4.123,10.006C4.546,6.173 4.307,2.292 3.4,-1.457C3.286,-1.925 4.008,-2.126 4.123,-1.655" style="fill-rule:nonzero;"/>
    </g>
    <g transform="matrix(-0.211488,0,0,0.211488,177.477,86.4581)">
        <path d="M0,9.882C2.551,10.178 5.019,8.986 6.83,7.252C8.786,5.379 10.024,2.906 11.221,0.515C11.437,0.085 10.79,-0.296 10.573,0.136C8.51,4.26 5.461,9.766 0,9.132C-0.479,9.076 -0.475,9.827 0,9.882" style="fill-rule:nonzero;"/>
    </g>
    <g transform="matrix(-0.169869,0.125982,-0.125982,-0.169869,172.432,89.9779)">
        <path d="M1.779,-0.636C0.62,1.195 0.904,3.734 2.371,5.306C2.699,5.659 2.107,6.12 1.779,5.769C0.076,3.942 -0.151,1.015 1.177,-1.082C1.434,-1.49 2.036,-1.042 1.779,-0.636" style="fill-rule:nonzero;"/>
    </g>
    <g transform="matrix(-0.211488,0,0,0.211488,165.764,107.129)">
        <path d="M0,31.069C3.226,31.048 5.654,28.888 7.588,26.51C10.043,23.49 12.174,20.235 14.708,17.267C20.008,11.059 26.109,5.566 32.82,0.92C33.214,0.647 32.839,-0.003 32.441,0.272C26.147,4.63 20.375,9.715 15.298,15.448C12.851,18.211 10.626,21.131 8.466,24.121C6.417,26.958 3.837,30.296 0,30.319C-0.482,30.322 -0.484,31.072 0,31.069" style="fill-rule:nonzero;"/>
    </g>
    <g transform="matrix(0,-0.211488,0.211488,0,171.535,107.437)">
        <path d="M-9.736,8.986L8.986,8.986C9.468,8.986 9.469,9.736 8.986,9.736L-9.736,9.736C-10.218,9.736 -10.219,8.986 -9.736,8.986" style="fill-rule:nonzero;"/>
    </g>
    <g transform="matrix(0.205896,0.048309,-0.048309,0.205896,171.986,107.338)">
        <path d="M1.193,-10.455C1.205,-6.902 1.446,-3.356 1.923,0.165C1.987,0.638 1.257,0.814 1.193,0.336C0.707,-3.251 0.455,-6.864 0.444,-10.484C0.441,-10.966 1.191,-10.939 1.193,-10.455" style="fill-rule:nonzero;"/>
    </g>
    <g transform="matrix(-0.211488,0,0,0.211488,177.814,93.4749)">
        <path d="M0,12.593L-2.188,13.856C-5.998,16.056 -10.916,14.739 -13.116,10.928C-15.316,7.117 -13.998,2.2 -10.188,0L-8,-1.263C-4.189,-3.463 0.729,-2.146 2.928,1.665C5.128,5.475 3.811,10.393 0,12.593Z" style="fill:white;fill-rule:nonzero;stroke:black;stroke-width:1.18px;"/>
    </g>
    <g transform="matrix(-0.211488,0,0,0.211488,172.097,101.831)">
        <path d="M0,11L-4,11C-5.925,11 -7.5,9.425 -7.5,7.5L-7.5,3.5C-7.5,1.575 -5.925,0 -4,0L0,0C1.925,0 3.5,1.575 3.5,3.5L3.5,7.5C3.5,9.425 1.925,11 0,11Z" style="fill:white;fill-rule:nonzero;stroke:black;stroke-width:1.18px;"/>
    </g>
    <g transform="matrix(-0.211488,0,0,0.211488,170.32,99.7516)">
        <path d="M0,8.163L-1.569,9.237C-2.853,10.115 -4.622,9.784 -5.5,8.499L-8.626,3.931C-9.505,2.647 -9.173,0.878 -7.889,0L-6.32,-1.074C-5.036,-1.952 -3.267,-1.621 -2.389,-0.337L0.737,4.231C1.616,5.516 1.284,7.285 0,8.163Z" style="fill:white;fill-rule:nonzero;stroke:black;stroke-width:1.18px;"/>
    </g>
    <g transform="matrix(-0.211488,0,0,0.211488,99.2266,90.8176)">
        <path d="M0,14.669L-2.845,12.706C-5.561,10.831 -6.249,7.075 -4.374,4.359L-2.419,1.528C-0.545,-1.187 3.211,-1.875 5.927,-0.001L8.771,1.963C11.487,3.837 12.175,7.593 10.3,10.309L8.346,13.14C6.471,15.856 2.715,16.544 0,14.669Z" style="fill:white;fill-rule:nonzero;stroke:black;stroke-width:1.18px;"/>
    </g>
    <g transform="matrix(-0.175297,0.118313,-0.118313,-0.175297,97.7178,95.2533)">
        <path d="M3.09,-0.923C4.728,2.509 4.985,6.512 3.801,10.126C3.65,10.586 2.94,10.346 3.09,9.888C4.215,6.455 3.97,2.661 2.415,-0.599C2.207,-1.034 2.882,-1.361 3.09,-0.923" style="fill-rule:nonzero;"/>
    </g>
    <g transform="matrix(-0.175616,0.11784,-0.11784,-0.175616,97.2238,95.777)">
        <path d="M4.366,-1.309C6.564,3.612 6.825,9.273 5.077,14.372C4.921,14.83 4.209,14.591 4.366,14.135C6.051,9.219 5.811,3.763 3.692,-0.982C3.494,-1.422 4.168,-1.751 4.366,-1.309" style="fill-rule:nonzero;"/>
    </g>
    <g transform="matrix(-0.193451,0.085463,-0.085463,-0.193451,92.3769,98.513)">
        <path d="M3.032,-0.658C1.811,4.136 0.478,9.777 3.639,14.141C3.922,14.532 3.316,14.972 3.032,14.58C-0.258,10.04 1.016,4.237 2.29,-0.768C2.408,-1.231 3.151,-1.126 3.032,-0.658" style="fill-rule:nonzero;"/>
    </g>
    <g transform="matrix(-0.211488,0,0,0.211488,90.4329,96.9997)">
        <path d="M0,4.122C0.131,2.61 1.067,1.226 2.394,0.504C2.818,0.273 2.44,-0.375 2.016,-0.144C0.445,0.71 -0.597,2.348 -0.75,4.122C-0.768,4.324 -0.565,4.497 -0.375,4.497C-0.158,4.497 -0.018,4.325 0,4.122" style="fill-rule:nonzero;"/>
    </g>
    <g transform="matrix(-0.161818,0.136169,-0.136169,-0.161818,91.1539,98.1146)">
        <path d="M4.018,-1.436C6.41,2.216 6.687,7.074 4.7,10.966C4.481,11.395 3.799,11.084 4.018,10.652C5.887,6.993 5.654,2.43 3.4,-1.011C3.136,-1.414 3.753,-1.841 4.018,-1.436" style="fill-rule:nonzero;"/>
    </g>
    <g transform="matrix(-0.203577,0.0573016,-0.0573016,-0.203577,89.3263,99.0197)">
        <path d="M1.094,-0.162C0.926,2.507 1.168,5.176 1.82,7.769C1.938,8.237 1.212,8.427 1.094,7.958C0.427,5.306 0.171,2.563 0.344,-0.166C0.374,-0.646 1.124,-0.644 1.094,-0.162" style="fill-rule:nonzero;"/>
    </g>
    <g transform="matrix(-0.211488,0,0,0.211488,68.4741,105.601)">
        <path d="M0,55.287C-11.057,51.586 -17.656,41.328 -24.124,32.335C-27.574,27.538 -31.27,23.017 -35.694,19.077C-39.909,15.324 -44.51,12.036 -49.129,8.806C-54.451,5.083 -59.809,1.204 -66.084,-0.734C-66.547,-0.877 -66.744,-0.153 -66.283,-0.011C-60.496,1.776 -55.514,5.263 -50.597,8.692C-45.783,12.051 -40.965,15.432 -36.555,19.315C-31.926,23.391 -28.09,28.083 -24.506,33.084C-21.263,37.608 -18.132,42.247 -14.326,46.329C-10.387,50.555 -5.728,54.16 -0.199,56.011C0.26,56.164 0.457,55.439 0,55.287" style="fill-rule:nonzero;"/>
    </g>
    <g transform="matrix(-0.211488,0,0,0.211488,86.1395,116.167)">
        <path d="M0,-18.275C7.521,-15.813 14.821,-12.709 21.797,-8.968C25.197,-7.145 28.519,-5.175 31.749,-3.065C34.621,-1.19 37.559,0.874 41.127,0.871C41.609,0.871 41.61,0.121 41.127,0.121C37.257,0.124 34.092,-2.466 30.983,-4.452C27.732,-6.529 24.391,-8.464 20.972,-10.253C14.306,-13.741 7.35,-16.658 0.199,-18.999C-0.26,-19.149 -0.458,-18.424 0,-18.275" style="fill-rule:nonzero;"/>
    </g>
    <g transform="matrix(-0.211488,0,0,0.211488,86.6357,121.437)">
        <path d="M0,-19.1C6.83,-14.268 14.042,-9.991 21.575,-6.347C28.381,-3.055 36.384,0.927 44.081,-1.506C44.54,-1.652 44.343,-2.376 43.881,-2.23C36,0.262 27.63,-4.176 20.724,-7.597C13.634,-11.107 6.836,-15.179 0.378,-19.747C-0.017,-20.027 -0.392,-19.376 0,-19.1" style="fill-rule:nonzero;"/>
    </g>
    <g transform="matrix(-0.211488,0,0,0.211488,63.3121,114.159)">
        <path d="M0,-162.741C-5.813,-142.557 -9.091,-121.707 -10.339,-100.754C-11.608,-79.429 -10.659,-58.085 -8.615,-36.84C-7.433,-24.542 -5.93,-12.279 -4.427,-0.016C-4.369,0.457 -3.618,0.463 -3.677,-0.016C-6.321,-21.587 -8.968,-43.19 -9.863,-64.919C-10.732,-86.024 -9.894,-107.237 -6.748,-128.137C-4.999,-139.751 -2.528,-151.254 0.723,-162.541C0.857,-163.006 0.134,-163.204 0,-162.741" style="fill-rule:nonzero;"/>
    </g>
    <g transform="matrix(-0.211488,0,0,0.211488,63.9474,159.723)">
        <path d="M0,-123.322C3.341,-91.377 6.685,-59.404 8.106,-27.303C8.51,-18.209 8.754,-9.107 8.808,-0.004C8.811,0.479 9.561,0.48 9.558,-0.004C9.369,-32.134 6.734,-64.183 3.548,-96.137C2.645,-105.202 1.697,-114.262 0.75,-123.322C0.7,-123.798 -0.051,-123.802 0,-123.322" style="fill-rule:nonzero;"/>
    </g>
    <g transform="matrix(-0.211488,0,0,0.211488,61.798,159.158)">
        <path d="M0,0.75C0.482,0.75 0.483,0 0,0C-0.482,0 -0.483,0.75 0,0.75" style="fill-rule:nonzero;"/>
    </g>
    <g transform="matrix(-0.211488,0,0,0.211488,61.8971,199.941)">
        <path d="M0,-192.485C-0.24,-186.429 1.373,-180.577 2.846,-174.761C4.423,-168.53 5.408,-162.242 5.83,-155.826C6.661,-143.214 6.121,-130.53 6.483,-117.899C7.208,-92.568 9.563,-67.284 13.515,-42.253C15.754,-28.07 18.514,-13.971 21.772,0.012C21.882,0.482 22.604,0.283 22.495,-0.188C16.686,-25.121 12.477,-50.421 9.931,-75.895C8.672,-88.487 7.816,-101.119 7.365,-113.764C6.918,-126.342 7.295,-138.937 6.804,-151.509C6.535,-158.399 5.859,-165.282 4.293,-172.006C2.719,-178.763 0.472,-185.46 0.75,-192.485C0.769,-192.967 0.019,-192.966 0,-192.485" style="fill-rule:nonzero;"/>
    </g>
    <g transform="matrix(-0.211488,0,0,0.211488,106.911,159.362)">
        <path d="M0,189.8C1.76,164.421 7.237,139.507 13.557,114.922C19.835,90.497 26.956,66.277 32.208,41.599C35.132,27.863 37.458,13.99 38.734,-0.001C38.778,-0.481 38.027,-0.478 37.984,-0.001C35.672,25.359 29.863,50.213 23.425,74.798C17.041,99.177 10.011,123.415 5.062,148.144C2.31,161.901 0.221,175.798 -0.75,189.8C-0.783,190.281 -0.033,190.279 0,189.8" style="fill-rule:nonzero;"/>
    </g>
    <g transform="matrix(-0.211488,0,0,0.211488,90.3877,127.717)">
        <path d="M0,-76.322C-0.398,-65.947 -1.68,-55.617 -3.863,-45.466C-4.939,-40.466 -6.238,-35.517 -7.731,-30.626C-9.196,-25.827 -10.799,-21.064 -11.979,-16.183C-13.259,-10.884 -13.995,-5.45 -13.472,0C-13.426,0.477 -12.676,0.482 -12.722,0C-13.698,-10.179 -10.239,-19.954 -7.283,-29.53C-4.3,-39.192 -2.076,-49.066 -0.728,-59.092C0.04,-64.808 0.529,-70.558 0.75,-76.322C0.769,-76.804 0.019,-76.803 0,-76.322" style="fill-rule:nonzero;"/>
    </g>
    <g transform="matrix(-0.211488,0,0,0.211488,86.9313,83.983)">
        <path d="M0,66.563C-0.626,48.054 11.15,32.241 13.866,14.347C14.591,9.57 14.628,4.734 13.656,-0.011C13.559,-0.483 12.836,-0.283 12.933,0.189C16.671,18.43 5.417,35.064 1.021,52.077C-0.203,56.811 -0.916,61.667 -0.75,66.563C-0.733,67.044 0.017,67.046 0,66.563" style="fill-rule:nonzero;"/>
    </g>
    <g transform="matrix(-0.210983,0.014607,-0.014607,-0.210983,89.2588,106.248)">
        <path d="M0.451,-0.017C1.391,4.282 1.644,8.703 1.199,13.08C1.15,13.56 0.402,13.51 0.451,13.028C0.889,8.713 0.642,4.37 -0.284,0.132C-0.387,-0.34 0.349,-0.488 0.451,-0.017" style="fill-rule:nonzero;"/>
    </g>
    <g transform="matrix(-0.211488,0,0,0.211488,93.1478,159.857)">
        <path d="M0,-154.884C-2.865,-134.682 -5.959,-114.512 -9.288,-94.38C-12.616,-74.249 -16.175,-54.156 -19.966,-34.108C-22.106,-22.789 -24.32,-11.486 -26.606,-0.196C-26.702,0.275 -25.979,0.477 -25.883,0.004C-21.834,-19.995 -18.011,-40.039 -14.422,-60.125C-10.833,-80.212 -7.474,-100.339 -4.349,-120.503C-2.584,-131.886 -0.895,-143.28 0.723,-154.685C0.79,-155.156 0.067,-155.361 0,-154.884" style="fill-rule:nonzero;"/>
    </g>
</svg>
